<mxfile host="app.diagrams.net" agent="Mozilla/5.0 (X11; Linux x86_64) AppleWebKit/537.36 (KHTML, like Gecko) Chrome/135.0.0.0 Safari/537.36" version="27.0.5">
  <diagram name="Page-1" id="CSIHZmcARd39kR_BbdCi">
    <mxGraphModel dx="2981" dy="1952" grid="0" gridSize="10" guides="1" tooltips="1" connect="1" arrows="1" fold="1" page="0" pageScale="1" pageWidth="1100" pageHeight="850" math="0" shadow="0" adaptiveColors="none">
      <root>
        <mxCell id="0" />
        <mxCell id="1" parent="0" />
        <mxCell id="I0mo_aROr3pK9CHTKxfO-1" value="SETUP" style="swimlane;whiteSpace=wrap;html=1;rounded=1;shadow=0;comic=0;labelBackgroundColor=none;strokeWidth=1;fontFamily=Verdana;fontSize=12;align=center;fillColor=#F2CC8F;strokeColor=#E07A5F;fontColor=#393C56;" vertex="1" parent="1">
          <mxGeometry x="-1390" y="-310" width="832" height="579" as="geometry" />
        </mxCell>
        <mxCell id="I0mo_aROr3pK9CHTKxfO-2" value="" style="ellipse;html=1;shape=endState;fillColor=#F2CC8F;strokeColor=#E07A5F;rounded=1;shadow=0;comic=0;labelBackgroundColor=none;fontFamily=Verdana;fontSize=12;fontColor=#393C56;align=center;" vertex="1" parent="I0mo_aROr3pK9CHTKxfO-1">
          <mxGeometry x="669" y="460" width="30" height="30" as="geometry" />
        </mxCell>
        <mxCell id="I0mo_aROr3pK9CHTKxfO-3" style="edgeStyle=orthogonalEdgeStyle;rounded=0;orthogonalLoop=1;jettySize=auto;html=1;entryX=0;entryY=0.5;entryDx=0;entryDy=0;strokeColor=#E07A5F;fontColor=#393C56;fillColor=#F2CC8F;" edge="1" parent="I0mo_aROr3pK9CHTKxfO-1" source="I0mo_aROr3pK9CHTKxfO-4" target="I0mo_aROr3pK9CHTKxfO-9">
          <mxGeometry relative="1" as="geometry" />
        </mxCell>
        <mxCell id="I0mo_aROr3pK9CHTKxfO-4" value="" style="ellipse;html=1;shape=startState;fillColor=#F2CC8F;strokeColor=#E07A5F;rounded=1;shadow=0;comic=0;labelBackgroundColor=none;fontFamily=Verdana;fontSize=12;fontColor=#393C56;align=center;direction=south;" vertex="1" parent="I0mo_aROr3pK9CHTKxfO-1">
          <mxGeometry x="50" y="205" width="30" height="30" as="geometry" />
        </mxCell>
        <mxCell id="I0mo_aROr3pK9CHTKxfO-5" style="edgeStyle=orthogonalEdgeStyle;rounded=0;orthogonalLoop=1;jettySize=auto;html=1;entryX=0.5;entryY=0;entryDx=0;entryDy=0;strokeColor=#E07A5F;fontColor=#393C56;fillColor=#F2CC8F;" edge="1" parent="I0mo_aROr3pK9CHTKxfO-1" source="I0mo_aROr3pK9CHTKxfO-9" target="I0mo_aROr3pK9CHTKxfO-14">
          <mxGeometry relative="1" as="geometry" />
        </mxCell>
        <mxCell id="I0mo_aROr3pK9CHTKxfO-6" style="edgeStyle=orthogonalEdgeStyle;rounded=0;orthogonalLoop=1;jettySize=auto;html=1;exitX=0.955;exitY=0.947;exitDx=0;exitDy=0;strokeColor=#E07A5F;fontColor=#393C56;fillColor=#F2CC8F;exitPerimeter=0;" edge="1" parent="I0mo_aROr3pK9CHTKxfO-1" source="I0mo_aROr3pK9CHTKxfO-9" target="I0mo_aROr3pK9CHTKxfO-17">
          <mxGeometry relative="1" as="geometry" />
        </mxCell>
        <mxCell id="I0mo_aROr3pK9CHTKxfO-7" style="edgeStyle=orthogonalEdgeStyle;rounded=0;orthogonalLoop=1;jettySize=auto;html=1;strokeColor=#E07A5F;fontColor=#393C56;fillColor=#F2CC8F;exitX=1;exitY=0.13;exitDx=0;exitDy=0;exitPerimeter=0;" edge="1" parent="I0mo_aROr3pK9CHTKxfO-1" source="I0mo_aROr3pK9CHTKxfO-9" target="I0mo_aROr3pK9CHTKxfO-20">
          <mxGeometry relative="1" as="geometry" />
        </mxCell>
        <mxCell id="I0mo_aROr3pK9CHTKxfO-8" style="edgeStyle=orthogonalEdgeStyle;rounded=0;orthogonalLoop=1;jettySize=auto;html=1;exitX=0.25;exitY=0;exitDx=0;exitDy=0;entryX=0.5;entryY=0;entryDx=0;entryDy=0;strokeColor=#E07A5F;fontColor=#393C56;fillColor=#F2CC8F;" edge="1" parent="I0mo_aROr3pK9CHTKxfO-1" source="I0mo_aROr3pK9CHTKxfO-9" target="I0mo_aROr3pK9CHTKxfO-29">
          <mxGeometry relative="1" as="geometry">
            <Array as="points">
              <mxPoint x="175" y="100" />
              <mxPoint x="685" y="100" />
            </Array>
          </mxGeometry>
        </mxCell>
        <mxCell id="I0mo_aROr3pK9CHTKxfO-9" value="SETUP" style="rounded=1;whiteSpace=wrap;html=1;arcSize=24;fillColor=#F2CC8F;strokeColor=#E07A5F;shadow=0;comic=0;labelBackgroundColor=none;fontFamily=Verdana;fontSize=12;fontColor=#393C56;align=center;" vertex="1" parent="I0mo_aROr3pK9CHTKxfO-1">
          <mxGeometry x="145" y="190" width="120" height="60" as="geometry" />
        </mxCell>
        <mxCell id="I0mo_aROr3pK9CHTKxfO-10" style="edgeStyle=orthogonalEdgeStyle;rounded=0;orthogonalLoop=1;jettySize=auto;html=1;entryX=0;entryY=0.75;entryDx=0;entryDy=0;strokeColor=#E07A5F;fontColor=#393C56;fillColor=#F2CC8F;" edge="1" parent="I0mo_aROr3pK9CHTKxfO-1" source="I0mo_aROr3pK9CHTKxfO-14" target="I0mo_aROr3pK9CHTKxfO-9">
          <mxGeometry relative="1" as="geometry">
            <Array as="points">
              <mxPoint x="125" y="350" />
              <mxPoint x="125" y="235" />
            </Array>
          </mxGeometry>
        </mxCell>
        <mxCell id="I0mo_aROr3pK9CHTKxfO-11" value="False" style="edgeLabel;html=1;align=center;verticalAlign=middle;resizable=0;points=[];strokeColor=#E07A5F;fontColor=#393C56;fillColor=#F2CC8F;" vertex="1" connectable="0" parent="I0mo_aROr3pK9CHTKxfO-10">
          <mxGeometry x="-0.1529" y="-1" relative="1" as="geometry">
            <mxPoint x="19" y="22" as="offset" />
          </mxGeometry>
        </mxCell>
        <mxCell id="I0mo_aROr3pK9CHTKxfO-12" style="edgeStyle=orthogonalEdgeStyle;rounded=0;orthogonalLoop=1;jettySize=auto;html=1;entryX=0.5;entryY=0;entryDx=0;entryDy=0;strokeColor=#E07A5F;fontColor=#393C56;fillColor=#F2CC8F;" edge="1" parent="I0mo_aROr3pK9CHTKxfO-1" source="I0mo_aROr3pK9CHTKxfO-14" target="I0mo_aROr3pK9CHTKxfO-31">
          <mxGeometry relative="1" as="geometry">
            <mxPoint x="205" y="455" as="targetPoint" />
          </mxGeometry>
        </mxCell>
        <mxCell id="I0mo_aROr3pK9CHTKxfO-13" value="True" style="edgeLabel;html=1;align=center;verticalAlign=middle;resizable=0;points=[];strokeColor=#E07A5F;fontColor=#393C56;fillColor=#F2CC8F;" vertex="1" connectable="0" parent="I0mo_aROr3pK9CHTKxfO-12">
          <mxGeometry x="-0.1667" y="3" relative="1" as="geometry">
            <mxPoint x="-23" y="-15" as="offset" />
          </mxGeometry>
        </mxCell>
        <mxCell id="I0mo_aROr3pK9CHTKxfO-14" value="Setup BP&lt;div&gt;selected&lt;/div&gt;" style="rhombus;whiteSpace=wrap;html=1;strokeColor=#E07A5F;fontColor=#393C56;fillColor=#F2CC8F;" vertex="1" parent="I0mo_aROr3pK9CHTKxfO-1">
          <mxGeometry x="160" y="305" width="90" height="90" as="geometry" />
        </mxCell>
        <mxCell id="I0mo_aROr3pK9CHTKxfO-15" style="edgeStyle=orthogonalEdgeStyle;rounded=0;orthogonalLoop=1;jettySize=auto;html=1;strokeColor=#E07A5F;fontColor=#393C56;fillColor=#F2CC8F;entryX=0.5;entryY=0;entryDx=0;entryDy=0;" edge="1" parent="I0mo_aROr3pK9CHTKxfO-1" source="I0mo_aROr3pK9CHTKxfO-17" target="I0mo_aROr3pK9CHTKxfO-35">
          <mxGeometry relative="1" as="geometry">
            <mxPoint x="370" y="455" as="targetPoint" />
          </mxGeometry>
        </mxCell>
        <mxCell id="I0mo_aROr3pK9CHTKxfO-16" value="True" style="edgeLabel;html=1;align=center;verticalAlign=middle;resizable=0;points=[];strokeColor=#E07A5F;fontColor=#393C56;fillColor=#F2CC8F;" vertex="1" connectable="0" parent="I0mo_aROr3pK9CHTKxfO-15">
          <mxGeometry x="-0.6222" y="-1" relative="1" as="geometry">
            <mxPoint x="-19" as="offset" />
          </mxGeometry>
        </mxCell>
        <mxCell id="I0mo_aROr3pK9CHTKxfO-17" value="Setup Temp&lt;div&gt;selected&lt;/div&gt;" style="rhombus;whiteSpace=wrap;html=1;strokeColor=#E07A5F;fontColor=#393C56;fillColor=#F2CC8F;" vertex="1" parent="I0mo_aROr3pK9CHTKxfO-1">
          <mxGeometry x="325" y="305" width="90" height="90" as="geometry" />
        </mxCell>
        <mxCell id="I0mo_aROr3pK9CHTKxfO-18" style="edgeStyle=orthogonalEdgeStyle;rounded=0;orthogonalLoop=1;jettySize=auto;html=1;exitX=0.5;exitY=1;exitDx=0;exitDy=0;strokeColor=#E07A5F;fontColor=#393C56;fillColor=#F2CC8F;entryX=0.5;entryY=0;entryDx=0;entryDy=0;" edge="1" parent="I0mo_aROr3pK9CHTKxfO-1" source="I0mo_aROr3pK9CHTKxfO-20" target="I0mo_aROr3pK9CHTKxfO-33">
          <mxGeometry relative="1" as="geometry">
            <mxPoint x="530" y="455" as="targetPoint" />
          </mxGeometry>
        </mxCell>
        <mxCell id="I0mo_aROr3pK9CHTKxfO-19" value="True" style="edgeLabel;html=1;align=center;verticalAlign=middle;resizable=0;points=[];strokeColor=#E07A5F;fontColor=#393C56;fillColor=#F2CC8F;" vertex="1" connectable="0" parent="I0mo_aROr3pK9CHTKxfO-18">
          <mxGeometry x="-0.687" y="1" relative="1" as="geometry">
            <mxPoint x="-16" as="offset" />
          </mxGeometry>
        </mxCell>
        <mxCell id="I0mo_aROr3pK9CHTKxfO-20" value="Setup HR&lt;div&gt;selected&lt;/div&gt;" style="rhombus;whiteSpace=wrap;html=1;strokeColor=#E07A5F;fontColor=#393C56;fillColor=#F2CC8F;" vertex="1" parent="I0mo_aROr3pK9CHTKxfO-1">
          <mxGeometry x="485" y="305" width="90" height="90" as="geometry" />
        </mxCell>
        <mxCell id="I0mo_aROr3pK9CHTKxfO-21" style="edgeStyle=orthogonalEdgeStyle;rounded=0;orthogonalLoop=1;jettySize=auto;html=1;entryX=0.86;entryY=0.995;entryDx=0;entryDy=0;entryPerimeter=0;strokeColor=#E07A5F;fontColor=#393C56;fillColor=#F2CC8F;" edge="1" parent="I0mo_aROr3pK9CHTKxfO-1" source="I0mo_aROr3pK9CHTKxfO-17" target="I0mo_aROr3pK9CHTKxfO-9">
          <mxGeometry relative="1" as="geometry">
            <Array as="points">
              <mxPoint x="270" y="350" />
              <mxPoint x="270" y="280" />
              <mxPoint x="248" y="280" />
            </Array>
          </mxGeometry>
        </mxCell>
        <mxCell id="I0mo_aROr3pK9CHTKxfO-22" value="False" style="edgeLabel;html=1;align=center;verticalAlign=middle;resizable=0;points=[];strokeColor=#E07A5F;fontColor=#393C56;fillColor=#F2CC8F;" vertex="1" connectable="0" parent="I0mo_aROr3pK9CHTKxfO-21">
          <mxGeometry x="-0.5386" y="3" relative="1" as="geometry">
            <mxPoint x="26" y="-13" as="offset" />
          </mxGeometry>
        </mxCell>
        <mxCell id="I0mo_aROr3pK9CHTKxfO-23" style="edgeStyle=orthogonalEdgeStyle;rounded=0;orthogonalLoop=1;jettySize=auto;html=1;exitX=0;exitY=0.5;exitDx=0;exitDy=0;strokeColor=#E07A5F;fontColor=#393C56;fillColor=#F2CC8F;entryX=1;entryY=0.5;entryDx=0;entryDy=0;" edge="1" parent="I0mo_aROr3pK9CHTKxfO-1" source="I0mo_aROr3pK9CHTKxfO-20" target="I0mo_aROr3pK9CHTKxfO-9">
          <mxGeometry relative="1" as="geometry">
            <mxPoint x="270" y="220" as="targetPoint" />
            <Array as="points">
              <mxPoint x="450" y="350" />
              <mxPoint x="450" y="220" />
            </Array>
          </mxGeometry>
        </mxCell>
        <mxCell id="I0mo_aROr3pK9CHTKxfO-24" value="False" style="edgeLabel;html=1;align=center;verticalAlign=middle;resizable=0;points=[];strokeColor=#E07A5F;fontColor=#393C56;fillColor=#F2CC8F;" vertex="1" connectable="0" parent="I0mo_aROr3pK9CHTKxfO-23">
          <mxGeometry x="-0.8697" relative="1" as="geometry">
            <mxPoint x="8" y="-10" as="offset" />
          </mxGeometry>
        </mxCell>
        <mxCell id="I0mo_aROr3pK9CHTKxfO-25" style="edgeStyle=orthogonalEdgeStyle;rounded=0;orthogonalLoop=1;jettySize=auto;html=1;strokeColor=#E07A5F;fontColor=#393C56;fillColor=#F2CC8F;entryX=0.5;entryY=0;entryDx=0;entryDy=0;" edge="1" parent="I0mo_aROr3pK9CHTKxfO-1" source="I0mo_aROr3pK9CHTKxfO-29" target="I0mo_aROr3pK9CHTKxfO-2">
          <mxGeometry relative="1" as="geometry">
            <mxPoint x="850" y="410" as="targetPoint" />
          </mxGeometry>
        </mxCell>
        <mxCell id="I0mo_aROr3pK9CHTKxfO-26" value="True" style="edgeLabel;html=1;align=center;verticalAlign=middle;resizable=0;points=[];strokeColor=#E07A5F;fontColor=#393C56;fillColor=#F2CC8F;" vertex="1" connectable="0" parent="I0mo_aROr3pK9CHTKxfO-25">
          <mxGeometry x="-0.8357" relative="1" as="geometry">
            <mxPoint x="15" y="1" as="offset" />
          </mxGeometry>
        </mxCell>
        <mxCell id="I0mo_aROr3pK9CHTKxfO-27" style="edgeStyle=orthogonalEdgeStyle;rounded=0;orthogonalLoop=1;jettySize=auto;html=1;exitX=0;exitY=0.5;exitDx=0;exitDy=0;entryX=0.75;entryY=0;entryDx=0;entryDy=0;strokeColor=#E07A5F;fontColor=#393C56;fillColor=#F2CC8F;" edge="1" parent="I0mo_aROr3pK9CHTKxfO-1" source="I0mo_aROr3pK9CHTKxfO-29" target="I0mo_aROr3pK9CHTKxfO-9">
          <mxGeometry relative="1" as="geometry">
            <Array as="points">
              <mxPoint x="610" y="350" />
              <mxPoint x="610" y="140" />
              <mxPoint x="235" y="140" />
            </Array>
          </mxGeometry>
        </mxCell>
        <mxCell id="I0mo_aROr3pK9CHTKxfO-28" value="False" style="edgeLabel;html=1;align=center;verticalAlign=middle;resizable=0;points=[];strokeColor=#E07A5F;fontColor=#393C56;fillColor=#F2CC8F;" vertex="1" connectable="0" parent="I0mo_aROr3pK9CHTKxfO-27">
          <mxGeometry x="-0.7999" relative="1" as="geometry">
            <mxPoint x="20" y="22" as="offset" />
          </mxGeometry>
        </mxCell>
        <mxCell id="I0mo_aROr3pK9CHTKxfO-29" value="Back selected" style="rhombus;whiteSpace=wrap;html=1;strokeColor=#E07A5F;fontColor=#393C56;fillColor=#F2CC8F;" vertex="1" parent="I0mo_aROr3pK9CHTKxfO-1">
          <mxGeometry x="640" y="305" width="90" height="90" as="geometry" />
        </mxCell>
        <mxCell id="I0mo_aROr3pK9CHTKxfO-30" value="Change state to previous state&lt;div&gt;(CONNECTED&amp;nbsp;&lt;span style=&quot;background-color: transparent; color: light-dark(rgb(57, 60, 86), rgb(182, 184, 207));&quot;&gt;or&amp;nbsp;&lt;/span&gt;&lt;span style=&quot;background-color: transparent; color: light-dark(rgb(57, 60, 86), rgb(182, 184, 207));&quot;&gt;DISCONNECTED)&lt;/span&gt;&lt;/div&gt;" style="text;html=1;align=center;verticalAlign=middle;whiteSpace=wrap;rounded=0;fontColor=#393C56;" vertex="1" parent="I0mo_aROr3pK9CHTKxfO-1">
          <mxGeometry x="614" y="495" width="208" height="62" as="geometry" />
        </mxCell>
        <mxCell id="I0mo_aROr3pK9CHTKxfO-31" value="" style="ellipse;html=1;shape=endState;fillColor=#F2CC8F;strokeColor=#E07A5F;rounded=1;shadow=0;comic=0;labelBackgroundColor=none;fontFamily=Verdana;fontSize=12;fontColor=#393C56;align=center;" vertex="1" parent="I0mo_aROr3pK9CHTKxfO-1">
          <mxGeometry x="190" y="460" width="30" height="30" as="geometry" />
        </mxCell>
        <mxCell id="I0mo_aROr3pK9CHTKxfO-32" value="Change state to SETUP_BP" style="text;html=1;align=center;verticalAlign=middle;whiteSpace=wrap;rounded=0;fontColor=#393C56;" vertex="1" parent="I0mo_aROr3pK9CHTKxfO-1">
          <mxGeometry x="160.5" y="501" width="89" height="50" as="geometry" />
        </mxCell>
        <mxCell id="I0mo_aROr3pK9CHTKxfO-33" value="" style="ellipse;html=1;shape=endState;fillColor=#F2CC8F;strokeColor=#E07A5F;rounded=1;shadow=0;comic=0;labelBackgroundColor=none;fontFamily=Verdana;fontSize=12;fontColor=#393C56;align=center;" vertex="1" parent="I0mo_aROr3pK9CHTKxfO-1">
          <mxGeometry x="514.5" y="460" width="30" height="30" as="geometry" />
        </mxCell>
        <mxCell id="I0mo_aROr3pK9CHTKxfO-34" value="Change state to SETUP_HR" style="text;html=1;align=center;verticalAlign=middle;whiteSpace=wrap;rounded=0;fontColor=#393C56;" vertex="1" parent="I0mo_aROr3pK9CHTKxfO-1">
          <mxGeometry x="485" y="501" width="89" height="50" as="geometry" />
        </mxCell>
        <mxCell id="I0mo_aROr3pK9CHTKxfO-35" value="" style="ellipse;html=1;shape=endState;fillColor=#F2CC8F;strokeColor=#E07A5F;rounded=1;shadow=0;comic=0;labelBackgroundColor=none;fontFamily=Verdana;fontSize=12;fontColor=#393C56;align=center;" vertex="1" parent="I0mo_aROr3pK9CHTKxfO-1">
          <mxGeometry x="355.5" y="460" width="30" height="30" as="geometry" />
        </mxCell>
        <mxCell id="I0mo_aROr3pK9CHTKxfO-36" value="Change state to SETUP_TEMP" style="text;html=1;align=center;verticalAlign=middle;whiteSpace=wrap;rounded=0;fontColor=#393C56;" vertex="1" parent="I0mo_aROr3pK9CHTKxfO-1">
          <mxGeometry x="326" y="501" width="89" height="50" as="geometry" />
        </mxCell>
        <mxCell id="I0mo_aROr3pK9CHTKxfO-37" value="DISCONNECTED" style="swimlane;whiteSpace=wrap;html=1;rounded=1;shadow=0;comic=0;labelBackgroundColor=none;strokeWidth=1;fontFamily=Verdana;fontSize=12;align=center;fillColor=#F2CC8F;strokeColor=#E07A5F;fontColor=#393C56;startSize=23;" vertex="1" parent="1">
          <mxGeometry x="-1390" y="-880" width="570" height="531" as="geometry">
            <mxRectangle x="-1390" y="-880" width="133" height="26" as="alternateBounds" />
          </mxGeometry>
        </mxCell>
        <mxCell id="I0mo_aROr3pK9CHTKxfO-38" style="edgeStyle=orthogonalEdgeStyle;rounded=0;orthogonalLoop=1;jettySize=auto;html=1;entryX=0.5;entryY=0;entryDx=0;entryDy=0;strokeColor=#E07A5F;fontColor=#393C56;fillColor=#F2CC8F;" edge="1" parent="I0mo_aROr3pK9CHTKxfO-37">
          <mxGeometry relative="1" as="geometry">
            <mxPoint x="205" y="305" as="targetPoint" />
          </mxGeometry>
        </mxCell>
        <mxCell id="I0mo_aROr3pK9CHTKxfO-39" style="edgeStyle=orthogonalEdgeStyle;rounded=0;orthogonalLoop=1;jettySize=auto;html=1;exitX=0.955;exitY=0.947;exitDx=0;exitDy=0;strokeColor=#E07A5F;fontColor=#393C56;fillColor=#F2CC8F;exitPerimeter=0;" edge="1" parent="I0mo_aROr3pK9CHTKxfO-37">
          <mxGeometry relative="1" as="geometry">
            <mxPoint x="259.59999999999945" y="246.81999999999994" as="sourcePoint" />
          </mxGeometry>
        </mxCell>
        <mxCell id="I0mo_aROr3pK9CHTKxfO-40" style="edgeStyle=orthogonalEdgeStyle;rounded=0;orthogonalLoop=1;jettySize=auto;html=1;strokeColor=#E07A5F;fontColor=#393C56;fillColor=#F2CC8F;exitX=1;exitY=0.13;exitDx=0;exitDy=0;exitPerimeter=0;" edge="1" parent="I0mo_aROr3pK9CHTKxfO-37">
          <mxGeometry relative="1" as="geometry">
            <mxPoint x="265" y="197.80000000000018" as="sourcePoint" />
          </mxGeometry>
        </mxCell>
        <mxCell id="I0mo_aROr3pK9CHTKxfO-41" style="edgeStyle=orthogonalEdgeStyle;rounded=0;orthogonalLoop=1;jettySize=auto;html=1;exitX=0.75;exitY=0;exitDx=0;exitDy=0;entryX=0.5;entryY=0;entryDx=0;entryDy=0;strokeColor=#E07A5F;fontColor=#393C56;fillColor=#F2CC8F;" edge="1" parent="I0mo_aROr3pK9CHTKxfO-37">
          <mxGeometry relative="1" as="geometry">
            <mxPoint x="685" y="305" as="targetPoint" />
          </mxGeometry>
        </mxCell>
        <mxCell id="I0mo_aROr3pK9CHTKxfO-42" style="edgeStyle=orthogonalEdgeStyle;rounded=0;orthogonalLoop=1;jettySize=auto;html=1;entryX=0;entryY=0.75;entryDx=0;entryDy=0;strokeColor=#E07A5F;fontColor=#393C56;fillColor=#F2CC8F;" edge="1" parent="I0mo_aROr3pK9CHTKxfO-37">
          <mxGeometry relative="1" as="geometry">
            <Array as="points">
              <mxPoint x="125" y="350" />
              <mxPoint x="125" y="235" />
            </Array>
            <mxPoint x="160" y="350" as="sourcePoint" />
          </mxGeometry>
        </mxCell>
        <mxCell id="I0mo_aROr3pK9CHTKxfO-43" value="False" style="edgeLabel;html=1;align=center;verticalAlign=middle;resizable=0;points=[];strokeColor=#E07A5F;fontColor=#393C56;fillColor=#F2CC8F;" vertex="1" connectable="0" parent="I0mo_aROr3pK9CHTKxfO-42">
          <mxGeometry x="-0.1529" y="-1" relative="1" as="geometry">
            <mxPoint x="19" y="22" as="offset" />
          </mxGeometry>
        </mxCell>
        <mxCell id="I0mo_aROr3pK9CHTKxfO-44" style="edgeStyle=orthogonalEdgeStyle;rounded=0;orthogonalLoop=1;jettySize=auto;html=1;entryX=0.5;entryY=0;entryDx=0;entryDy=0;strokeColor=#E07A5F;fontColor=#393C56;fillColor=#F2CC8F;" edge="1" parent="I0mo_aROr3pK9CHTKxfO-37">
          <mxGeometry relative="1" as="geometry">
            <mxPoint x="205" y="455.0000000000002" as="targetPoint" />
          </mxGeometry>
        </mxCell>
        <mxCell id="I0mo_aROr3pK9CHTKxfO-45" value="True" style="edgeLabel;html=1;align=center;verticalAlign=middle;resizable=0;points=[];strokeColor=#E07A5F;fontColor=#393C56;fillColor=#F2CC8F;" vertex="1" connectable="0" parent="I0mo_aROr3pK9CHTKxfO-44">
          <mxGeometry x="-0.1667" y="3" relative="1" as="geometry">
            <mxPoint x="-23" y="-15" as="offset" />
          </mxGeometry>
        </mxCell>
        <mxCell id="I0mo_aROr3pK9CHTKxfO-46" style="edgeStyle=orthogonalEdgeStyle;rounded=0;orthogonalLoop=1;jettySize=auto;html=1;strokeColor=#E07A5F;fontColor=#393C56;fillColor=#F2CC8F;" edge="1" parent="I0mo_aROr3pK9CHTKxfO-37">
          <mxGeometry relative="1" as="geometry">
            <mxPoint x="370" y="455.0000000000002" as="targetPoint" />
          </mxGeometry>
        </mxCell>
        <mxCell id="I0mo_aROr3pK9CHTKxfO-47" value="True" style="edgeLabel;html=1;align=center;verticalAlign=middle;resizable=0;points=[];strokeColor=#E07A5F;fontColor=#393C56;fillColor=#F2CC8F;" vertex="1" connectable="0" parent="I0mo_aROr3pK9CHTKxfO-46">
          <mxGeometry x="-0.6222" y="-1" relative="1" as="geometry">
            <mxPoint x="-19" as="offset" />
          </mxGeometry>
        </mxCell>
        <mxCell id="I0mo_aROr3pK9CHTKxfO-48" style="edgeStyle=orthogonalEdgeStyle;rounded=0;orthogonalLoop=1;jettySize=auto;html=1;exitX=0.5;exitY=1;exitDx=0;exitDy=0;strokeColor=#E07A5F;fontColor=#393C56;fillColor=#F2CC8F;" edge="1" parent="I0mo_aROr3pK9CHTKxfO-37">
          <mxGeometry relative="1" as="geometry">
            <mxPoint x="530" y="455.0000000000002" as="targetPoint" />
          </mxGeometry>
        </mxCell>
        <mxCell id="I0mo_aROr3pK9CHTKxfO-49" value="True" style="edgeLabel;html=1;align=center;verticalAlign=middle;resizable=0;points=[];strokeColor=#E07A5F;fontColor=#393C56;fillColor=#F2CC8F;" vertex="1" connectable="0" parent="I0mo_aROr3pK9CHTKxfO-48">
          <mxGeometry x="-0.687" y="1" relative="1" as="geometry">
            <mxPoint x="-16" as="offset" />
          </mxGeometry>
        </mxCell>
        <mxCell id="I0mo_aROr3pK9CHTKxfO-50" style="edgeStyle=orthogonalEdgeStyle;rounded=0;orthogonalLoop=1;jettySize=auto;html=1;entryX=0.86;entryY=0.995;entryDx=0;entryDy=0;entryPerimeter=0;strokeColor=#E07A5F;fontColor=#393C56;fillColor=#F2CC8F;" edge="1" parent="I0mo_aROr3pK9CHTKxfO-37">
          <mxGeometry relative="1" as="geometry">
            <Array as="points">
              <mxPoint x="270" y="350" />
              <mxPoint x="270" y="280" />
              <mxPoint x="248" y="280" />
            </Array>
            <mxPoint x="248.19999999999936" y="249.70000000000005" as="targetPoint" />
          </mxGeometry>
        </mxCell>
        <mxCell id="I0mo_aROr3pK9CHTKxfO-51" value="False" style="edgeLabel;html=1;align=center;verticalAlign=middle;resizable=0;points=[];strokeColor=#E07A5F;fontColor=#393C56;fillColor=#F2CC8F;" vertex="1" connectable="0" parent="I0mo_aROr3pK9CHTKxfO-50">
          <mxGeometry x="-0.5386" y="3" relative="1" as="geometry">
            <mxPoint x="26" y="-13" as="offset" />
          </mxGeometry>
        </mxCell>
        <mxCell id="I0mo_aROr3pK9CHTKxfO-52" style="edgeStyle=orthogonalEdgeStyle;rounded=0;orthogonalLoop=1;jettySize=auto;html=1;exitX=0;exitY=0.5;exitDx=0;exitDy=0;strokeColor=#E07A5F;fontColor=#393C56;fillColor=#F2CC8F;entryX=1;entryY=0.5;entryDx=0;entryDy=0;" edge="1" parent="I0mo_aROr3pK9CHTKxfO-37">
          <mxGeometry relative="1" as="geometry">
            <mxPoint x="265" y="220" as="targetPoint" />
            <Array as="points">
              <mxPoint x="450" y="350" />
              <mxPoint x="450" y="220" />
            </Array>
          </mxGeometry>
        </mxCell>
        <mxCell id="I0mo_aROr3pK9CHTKxfO-53" value="False" style="edgeLabel;html=1;align=center;verticalAlign=middle;resizable=0;points=[];strokeColor=#E07A5F;fontColor=#393C56;fillColor=#F2CC8F;" vertex="1" connectable="0" parent="I0mo_aROr3pK9CHTKxfO-52">
          <mxGeometry x="-0.8697" relative="1" as="geometry">
            <mxPoint x="8" y="-10" as="offset" />
          </mxGeometry>
        </mxCell>
        <mxCell id="I0mo_aROr3pK9CHTKxfO-54" style="edgeStyle=orthogonalEdgeStyle;rounded=0;orthogonalLoop=1;jettySize=auto;html=1;entryX=0;entryY=0.5;entryDx=0;entryDy=0;strokeColor=#E07A5F;fontColor=#393C56;fillColor=#F2CC8F;" edge="1" parent="I0mo_aROr3pK9CHTKxfO-37">
          <mxGeometry relative="1" as="geometry">
            <mxPoint x="710" y="485.0000000000002" as="targetPoint" />
          </mxGeometry>
        </mxCell>
        <mxCell id="I0mo_aROr3pK9CHTKxfO-55" value="" style="ellipse;html=1;shape=startState;fillColor=#F2CC8F;strokeColor=#E07A5F;rounded=1;shadow=0;comic=0;labelBackgroundColor=none;fontFamily=Verdana;fontSize=12;fontColor=#393C56;align=center;direction=south;" vertex="1" parent="I0mo_aROr3pK9CHTKxfO-37">
          <mxGeometry x="20" y="195" width="30" height="30" as="geometry" />
        </mxCell>
        <mxCell id="I0mo_aROr3pK9CHTKxfO-56" style="edgeStyle=orthogonalEdgeStyle;rounded=0;orthogonalLoop=1;jettySize=auto;html=1;entryX=0;entryY=0.5;entryDx=0;entryDy=0;strokeColor=#E07A5F;fontColor=#393C56;fillColor=#F2CC8F;" edge="1" parent="I0mo_aROr3pK9CHTKxfO-37" source="I0mo_aROr3pK9CHTKxfO-58" target="I0mo_aROr3pK9CHTKxfO-62">
          <mxGeometry relative="1" as="geometry" />
        </mxCell>
        <mxCell id="I0mo_aROr3pK9CHTKxfO-57" style="edgeStyle=orthogonalEdgeStyle;rounded=0;orthogonalLoop=1;jettySize=auto;html=1;entryX=0.5;entryY=0;entryDx=0;entryDy=0;strokeColor=#E07A5F;fontColor=#393C56;fillColor=#F2CC8F;" edge="1" parent="I0mo_aROr3pK9CHTKxfO-37" source="I0mo_aROr3pK9CHTKxfO-58" target="I0mo_aROr3pK9CHTKxfO-65">
          <mxGeometry relative="1" as="geometry" />
        </mxCell>
        <mxCell id="I0mo_aROr3pK9CHTKxfO-58" value="DISCONNECTED" style="rounded=1;whiteSpace=wrap;html=1;arcSize=24;fillColor=#F2CC8F;strokeColor=#E07A5F;shadow=0;comic=0;labelBackgroundColor=none;fontFamily=Verdana;fontSize=12;fontColor=#393C56;align=center;" vertex="1" parent="I0mo_aROr3pK9CHTKxfO-37">
          <mxGeometry x="130" y="180" width="120" height="60" as="geometry" />
        </mxCell>
        <mxCell id="I0mo_aROr3pK9CHTKxfO-59" style="edgeStyle=orthogonalEdgeStyle;html=1;labelBackgroundColor=none;endArrow=open;endSize=8;strokeColor=#E07A5F;fontFamily=Verdana;fontSize=12;align=left;fontColor=default;" edge="1" parent="I0mo_aROr3pK9CHTKxfO-37" source="I0mo_aROr3pK9CHTKxfO-55" target="I0mo_aROr3pK9CHTKxfO-58">
          <mxGeometry relative="1" as="geometry" />
        </mxCell>
        <mxCell id="I0mo_aROr3pK9CHTKxfO-60" style="edgeStyle=orthogonalEdgeStyle;rounded=0;orthogonalLoop=1;jettySize=auto;html=1;strokeColor=#E07A5F;fontColor=#393C56;fillColor=#F2CC8F;entryX=0.5;entryY=0;entryDx=0;entryDy=0;exitX=0.5;exitY=0;exitDx=0;exitDy=0;" edge="1" parent="I0mo_aROr3pK9CHTKxfO-37" source="I0mo_aROr3pK9CHTKxfO-62" target="I0mo_aROr3pK9CHTKxfO-58">
          <mxGeometry relative="1" as="geometry">
            <mxPoint x="260" y="60" as="targetPoint" />
            <Array as="points">
              <mxPoint x="435" y="130" />
              <mxPoint x="190" y="130" />
            </Array>
          </mxGeometry>
        </mxCell>
        <mxCell id="I0mo_aROr3pK9CHTKxfO-61" value="False" style="edgeLabel;html=1;align=center;verticalAlign=middle;resizable=0;points=[];strokeColor=#E07A5F;fontColor=#393C56;fillColor=#F2CC8F;" vertex="1" connectable="0" parent="I0mo_aROr3pK9CHTKxfO-60">
          <mxGeometry x="-0.8988" y="1" relative="1" as="geometry">
            <mxPoint x="16" y="9" as="offset" />
          </mxGeometry>
        </mxCell>
        <mxCell id="I0mo_aROr3pK9CHTKxfO-62" value="BT&lt;div&gt;Connection Detected&lt;/div&gt;" style="rhombus;whiteSpace=wrap;html=1;strokeColor=#E07A5F;fontColor=#393C56;fillColor=#F2CC8F;" vertex="1" parent="I0mo_aROr3pK9CHTKxfO-37">
          <mxGeometry x="390" y="165" width="90" height="90" as="geometry" />
        </mxCell>
        <mxCell id="I0mo_aROr3pK9CHTKxfO-63" style="edgeStyle=orthogonalEdgeStyle;rounded=0;orthogonalLoop=1;jettySize=auto;html=1;exitX=1;exitY=0.5;exitDx=0;exitDy=0;strokeColor=#E07A5F;fontColor=#393C56;fillColor=#F2CC8F;" edge="1" parent="I0mo_aROr3pK9CHTKxfO-37" source="I0mo_aROr3pK9CHTKxfO-65">
          <mxGeometry relative="1" as="geometry">
            <mxPoint x="230" y="240" as="targetPoint" />
            <Array as="points">
              <mxPoint x="290" y="340" />
              <mxPoint x="290" y="280" />
              <mxPoint x="230" y="280" />
            </Array>
          </mxGeometry>
        </mxCell>
        <mxCell id="I0mo_aROr3pK9CHTKxfO-64" value="False" style="edgeLabel;html=1;align=center;verticalAlign=middle;resizable=0;points=[];strokeColor=#E07A5F;fontColor=#393C56;fillColor=#F2CC8F;" vertex="1" connectable="0" parent="I0mo_aROr3pK9CHTKxfO-63">
          <mxGeometry x="-0.3499" relative="1" as="geometry">
            <mxPoint x="-40" y="27" as="offset" />
          </mxGeometry>
        </mxCell>
        <mxCell id="I0mo_aROr3pK9CHTKxfO-65" value="Setup&lt;div&gt;option&lt;/div&gt;&lt;div&gt;selected&lt;/div&gt;" style="rhombus;whiteSpace=wrap;html=1;strokeColor=#E07A5F;fontColor=#393C56;fillColor=#F2CC8F;" vertex="1" parent="I0mo_aROr3pK9CHTKxfO-37">
          <mxGeometry x="145" y="295" width="90" height="90" as="geometry" />
        </mxCell>
        <mxCell id="I0mo_aROr3pK9CHTKxfO-66" value="START/&lt;div&gt;POWER ON&lt;/div&gt;" style="text;html=1;align=center;verticalAlign=middle;whiteSpace=wrap;rounded=0;fontColor=#393C56;" vertex="1" parent="I0mo_aROr3pK9CHTKxfO-37">
          <mxGeometry x="5" y="140" width="60" height="55" as="geometry" />
        </mxCell>
        <mxCell id="I0mo_aROr3pK9CHTKxfO-67" value="" style="ellipse;html=1;shape=endState;fillColor=#F2CC8F;strokeColor=#E07A5F;rounded=1;shadow=0;comic=0;labelBackgroundColor=none;fontFamily=Verdana;fontSize=12;fontColor=#393C56;align=center;" vertex="1" parent="I0mo_aROr3pK9CHTKxfO-37">
          <mxGeometry x="175" y="448" width="30" height="30" as="geometry" />
        </mxCell>
        <mxCell id="I0mo_aROr3pK9CHTKxfO-68" value="Change state to SETUP" style="text;html=1;align=center;verticalAlign=middle;whiteSpace=wrap;rounded=0;fontColor=#393C56;" vertex="1" parent="I0mo_aROr3pK9CHTKxfO-37">
          <mxGeometry x="212" y="448" width="89" height="33.5" as="geometry" />
        </mxCell>
        <mxCell id="I0mo_aROr3pK9CHTKxfO-69" style="edgeStyle=orthogonalEdgeStyle;rounded=0;orthogonalLoop=1;jettySize=auto;html=1;strokeColor=#E07A5F;fontColor=#393C56;fillColor=#F2CC8F;entryX=0.5;entryY=0;entryDx=0;entryDy=0;" edge="1" parent="I0mo_aROr3pK9CHTKxfO-37" source="I0mo_aROr3pK9CHTKxfO-65" target="I0mo_aROr3pK9CHTKxfO-67">
          <mxGeometry relative="1" as="geometry">
            <mxPoint x="190" y="570" as="targetPoint" />
          </mxGeometry>
        </mxCell>
        <mxCell id="I0mo_aROr3pK9CHTKxfO-70" value="True" style="edgeLabel;html=1;align=center;verticalAlign=middle;resizable=0;points=[];strokeColor=#E07A5F;fontColor=#393C56;fillColor=#F2CC8F;" vertex="1" connectable="0" parent="I0mo_aROr3pK9CHTKxfO-69">
          <mxGeometry x="-0.7863" relative="1" as="geometry">
            <mxPoint x="-20" y="-5" as="offset" />
          </mxGeometry>
        </mxCell>
        <mxCell id="I0mo_aROr3pK9CHTKxfO-71" value="" style="ellipse;html=1;shape=endState;fillColor=#F2CC8F;strokeColor=#E07A5F;rounded=1;shadow=0;comic=0;labelBackgroundColor=none;fontFamily=Verdana;fontSize=12;fontColor=#393C56;align=center;" vertex="1" parent="I0mo_aROr3pK9CHTKxfO-37">
          <mxGeometry x="420" y="327" width="30" height="30" as="geometry" />
        </mxCell>
        <mxCell id="I0mo_aROr3pK9CHTKxfO-72" value="Change state to CONNECTED" style="text;html=1;align=center;verticalAlign=middle;whiteSpace=wrap;rounded=0;fontColor=#393C56;" vertex="1" parent="I0mo_aROr3pK9CHTKxfO-37">
          <mxGeometry x="390.5" y="370" width="89" height="28" as="geometry" />
        </mxCell>
        <mxCell id="I0mo_aROr3pK9CHTKxfO-73" style="edgeStyle=orthogonalEdgeStyle;rounded=0;orthogonalLoop=1;jettySize=auto;html=1;strokeColor=#E07A5F;fontColor=#393C56;fillColor=#F2CC8F;entryX=0.5;entryY=0;entryDx=0;entryDy=0;" edge="1" parent="I0mo_aROr3pK9CHTKxfO-37" source="I0mo_aROr3pK9CHTKxfO-62" target="I0mo_aROr3pK9CHTKxfO-71">
          <mxGeometry relative="1" as="geometry">
            <mxPoint x="610" y="290" as="targetPoint" />
            <Array as="points" />
          </mxGeometry>
        </mxCell>
        <mxCell id="I0mo_aROr3pK9CHTKxfO-74" value="True" style="edgeLabel;html=1;align=center;verticalAlign=middle;resizable=0;points=[];strokeColor=#E07A5F;fontColor=#393C56;fillColor=#F2CC8F;" vertex="1" connectable="0" parent="I0mo_aROr3pK9CHTKxfO-73">
          <mxGeometry x="-0.3611" y="-2" relative="1" as="geometry">
            <mxPoint x="19" y="-12" as="offset" />
          </mxGeometry>
        </mxCell>
        <mxCell id="I0mo_aROr3pK9CHTKxfO-75" value="SETUP_BP" style="swimlane;whiteSpace=wrap;html=1;rounded=1;shadow=0;comic=0;labelBackgroundColor=none;strokeWidth=1;fontFamily=Verdana;fontSize=12;align=center;fillColor=#F2CC8F;strokeColor=#E07A5F;fontColor=#393C56;" vertex="1" parent="1">
          <mxGeometry x="-510" y="50" width="757" height="250" as="geometry" />
        </mxCell>
        <mxCell id="I0mo_aROr3pK9CHTKxfO-76" value="" style="ellipse;html=1;shape=endState;fillColor=#F2CC8F;strokeColor=#E07A5F;rounded=1;shadow=0;comic=0;labelBackgroundColor=none;fontFamily=Verdana;fontSize=12;fontColor=#393C56;align=center;" vertex="1" parent="I0mo_aROr3pK9CHTKxfO-75">
          <mxGeometry x="656" y="135.99999999999997" width="30" height="30" as="geometry" />
        </mxCell>
        <mxCell id="I0mo_aROr3pK9CHTKxfO-77" style="edgeStyle=orthogonalEdgeStyle;rounded=0;orthogonalLoop=1;jettySize=auto;html=1;entryX=0;entryY=0.5;entryDx=0;entryDy=0;strokeColor=#E07A5F;fontColor=#393C56;fillColor=#F2CC8F;" edge="1" parent="I0mo_aROr3pK9CHTKxfO-75" source="I0mo_aROr3pK9CHTKxfO-78" target="I0mo_aROr3pK9CHTKxfO-95">
          <mxGeometry relative="1" as="geometry" />
        </mxCell>
        <mxCell id="I0mo_aROr3pK9CHTKxfO-78" value="" style="ellipse;html=1;shape=startState;fillColor=#F2CC8F;strokeColor=#E07A5F;rounded=1;shadow=0;comic=0;labelBackgroundColor=none;fontFamily=Verdana;fontSize=12;fontColor=#393C56;align=center;direction=south;" vertex="1" parent="I0mo_aROr3pK9CHTKxfO-75">
          <mxGeometry x="24" y="135.99999999999997" width="30" height="30" as="geometry" />
        </mxCell>
        <mxCell id="I0mo_aROr3pK9CHTKxfO-79" style="edgeStyle=orthogonalEdgeStyle;rounded=0;orthogonalLoop=1;jettySize=auto;html=1;entryX=0.5;entryY=0;entryDx=0;entryDy=0;strokeColor=#E07A5F;fontColor=#393C56;fillColor=#F2CC8F;" edge="1" parent="I0mo_aROr3pK9CHTKxfO-75">
          <mxGeometry relative="1" as="geometry">
            <mxPoint x="205" y="395" as="sourcePoint" />
          </mxGeometry>
        </mxCell>
        <mxCell id="I0mo_aROr3pK9CHTKxfO-80" value="True" style="edgeLabel;html=1;align=center;verticalAlign=middle;resizable=0;points=[];strokeColor=#E07A5F;fontColor=#393C56;fillColor=#F2CC8F;" vertex="1" connectable="0" parent="I0mo_aROr3pK9CHTKxfO-79">
          <mxGeometry x="-0.1667" y="3" relative="1" as="geometry">
            <mxPoint x="-23" y="-15" as="offset" />
          </mxGeometry>
        </mxCell>
        <mxCell id="I0mo_aROr3pK9CHTKxfO-81" style="edgeStyle=orthogonalEdgeStyle;rounded=0;orthogonalLoop=1;jettySize=auto;html=1;strokeColor=#E07A5F;fontColor=#393C56;fillColor=#F2CC8F;" edge="1" parent="I0mo_aROr3pK9CHTKxfO-75">
          <mxGeometry relative="1" as="geometry">
            <mxPoint x="370" y="395" as="sourcePoint" />
          </mxGeometry>
        </mxCell>
        <mxCell id="I0mo_aROr3pK9CHTKxfO-82" value="True" style="edgeLabel;html=1;align=center;verticalAlign=middle;resizable=0;points=[];strokeColor=#E07A5F;fontColor=#393C56;fillColor=#F2CC8F;" vertex="1" connectable="0" parent="I0mo_aROr3pK9CHTKxfO-81">
          <mxGeometry x="-0.6222" y="-1" relative="1" as="geometry">
            <mxPoint x="-19" as="offset" />
          </mxGeometry>
        </mxCell>
        <mxCell id="I0mo_aROr3pK9CHTKxfO-83" style="edgeStyle=orthogonalEdgeStyle;rounded=0;orthogonalLoop=1;jettySize=auto;html=1;exitX=0.5;exitY=1;exitDx=0;exitDy=0;strokeColor=#E07A5F;fontColor=#393C56;fillColor=#F2CC8F;" edge="1" parent="I0mo_aROr3pK9CHTKxfO-75">
          <mxGeometry relative="1" as="geometry">
            <mxPoint x="530" y="395" as="sourcePoint" />
          </mxGeometry>
        </mxCell>
        <mxCell id="I0mo_aROr3pK9CHTKxfO-84" value="True" style="edgeLabel;html=1;align=center;verticalAlign=middle;resizable=0;points=[];strokeColor=#E07A5F;fontColor=#393C56;fillColor=#F2CC8F;" vertex="1" connectable="0" parent="I0mo_aROr3pK9CHTKxfO-83">
          <mxGeometry x="-0.687" y="1" relative="1" as="geometry">
            <mxPoint x="-16" as="offset" />
          </mxGeometry>
        </mxCell>
        <mxCell id="I0mo_aROr3pK9CHTKxfO-85" style="edgeStyle=orthogonalEdgeStyle;rounded=0;orthogonalLoop=1;jettySize=auto;html=1;entryX=0;entryY=0.5;entryDx=0;entryDy=0;strokeColor=#E07A5F;fontColor=#393C56;fillColor=#F2CC8F;" edge="1" parent="I0mo_aROr3pK9CHTKxfO-75">
          <mxGeometry relative="1" as="geometry">
            <mxPoint x="684.9999999999995" y="394.99999999999955" as="sourcePoint" />
          </mxGeometry>
        </mxCell>
        <mxCell id="I0mo_aROr3pK9CHTKxfO-86" style="edgeStyle=orthogonalEdgeStyle;rounded=0;orthogonalLoop=1;jettySize=auto;html=1;entryX=0;entryY=0.5;entryDx=0;entryDy=0;strokeColor=#E07A5F;fontColor=#393C56;fillColor=#F2CC8F;" edge="1" parent="I0mo_aROr3pK9CHTKxfO-75" source="I0mo_aROr3pK9CHTKxfO-87" target="I0mo_aROr3pK9CHTKxfO-90">
          <mxGeometry relative="1" as="geometry" />
        </mxCell>
        <mxCell id="I0mo_aROr3pK9CHTKxfO-87" value="Enter min/max values sequentially" style="shape=process;whiteSpace=wrap;html=1;backgroundOutline=1;strokeColor=#E07A5F;fontColor=#393C56;fillColor=#F2CC8F;" vertex="1" parent="I0mo_aROr3pK9CHTKxfO-75">
          <mxGeometry x="296" y="121" width="120" height="60" as="geometry" />
        </mxCell>
        <mxCell id="I0mo_aROr3pK9CHTKxfO-88" style="edgeStyle=orthogonalEdgeStyle;rounded=0;orthogonalLoop=1;jettySize=auto;html=1;strokeColor=#E07A5F;fontColor=#393C56;fillColor=#F2CC8F;" edge="1" parent="I0mo_aROr3pK9CHTKxfO-75" source="I0mo_aROr3pK9CHTKxfO-90" target="I0mo_aROr3pK9CHTKxfO-76">
          <mxGeometry relative="1" as="geometry" />
        </mxCell>
        <mxCell id="I0mo_aROr3pK9CHTKxfO-89" value="False" style="edgeLabel;html=1;align=center;verticalAlign=middle;resizable=0;points=[];strokeColor=#E07A5F;fontColor=#393C56;fillColor=#F2CC8F;" vertex="1" connectable="0" parent="I0mo_aROr3pK9CHTKxfO-88">
          <mxGeometry x="-0.2407" relative="1" as="geometry">
            <mxPoint x="-3" y="-15" as="offset" />
          </mxGeometry>
        </mxCell>
        <mxCell id="I0mo_aROr3pK9CHTKxfO-90" value="max &amp;lt; min" style="rhombus;whiteSpace=wrap;html=1;strokeColor=#E07A5F;fontColor=#393C56;fillColor=#F2CC8F;" vertex="1" parent="I0mo_aROr3pK9CHTKxfO-75">
          <mxGeometry x="516" y="111" width="80" height="80" as="geometry" />
        </mxCell>
        <mxCell id="I0mo_aROr3pK9CHTKxfO-91" style="edgeStyle=orthogonalEdgeStyle;rounded=0;orthogonalLoop=1;jettySize=auto;html=1;entryX=0.597;entryY=0.038;entryDx=0;entryDy=0;entryPerimeter=0;strokeColor=#E07A5F;fontColor=#393C56;fillColor=#F2CC8F;" edge="1" parent="I0mo_aROr3pK9CHTKxfO-75" source="I0mo_aROr3pK9CHTKxfO-90" target="I0mo_aROr3pK9CHTKxfO-87">
          <mxGeometry relative="1" as="geometry">
            <Array as="points">
              <mxPoint x="430" y="80" />
              <mxPoint x="242" y="80" />
            </Array>
          </mxGeometry>
        </mxCell>
        <mxCell id="I0mo_aROr3pK9CHTKxfO-92" value="True" style="edgeLabel;html=1;align=center;verticalAlign=middle;resizable=0;points=[];strokeColor=#E07A5F;fontColor=#393C56;fillColor=#F2CC8F;" vertex="1" connectable="0" parent="I0mo_aROr3pK9CHTKxfO-91">
          <mxGeometry x="-0.8233" y="-1" relative="1" as="geometry">
            <mxPoint x="-21" y="11" as="offset" />
          </mxGeometry>
        </mxCell>
        <mxCell id="I0mo_aROr3pK9CHTKxfO-93" value="Change state&lt;br&gt;&lt;div&gt;to&lt;/div&gt;&lt;div&gt;SETUP&lt;/div&gt;" style="text;html=1;align=center;verticalAlign=middle;whiteSpace=wrap;rounded=0;fontColor=#393C56;" vertex="1" parent="I0mo_aROr3pK9CHTKxfO-75">
          <mxGeometry x="641" y="176.04000000000002" width="60" height="50" as="geometry" />
        </mxCell>
        <mxCell id="I0mo_aROr3pK9CHTKxfO-94" style="edgeStyle=orthogonalEdgeStyle;rounded=0;orthogonalLoop=1;jettySize=auto;html=1;entryX=0;entryY=0.5;entryDx=0;entryDy=0;strokeColor=#E07A5F;fontColor=#393C56;fillColor=#F2CC8F;" edge="1" parent="I0mo_aROr3pK9CHTKxfO-75" source="I0mo_aROr3pK9CHTKxfO-95" target="I0mo_aROr3pK9CHTKxfO-87">
          <mxGeometry relative="1" as="geometry" />
        </mxCell>
        <mxCell id="I0mo_aROr3pK9CHTKxfO-95" value="SETUP_BP" style="rounded=1;whiteSpace=wrap;html=1;arcSize=24;fillColor=#F2CC8F;strokeColor=#E07A5F;shadow=0;comic=0;labelBackgroundColor=none;fontFamily=Verdana;fontSize=12;fontColor=#393C56;align=center;" vertex="1" parent="I0mo_aROr3pK9CHTKxfO-75">
          <mxGeometry x="120" y="121" width="120" height="60" as="geometry" />
        </mxCell>
        <mxCell id="I0mo_aROr3pK9CHTKxfO-96" value="SETUP_TEMP" style="swimlane;whiteSpace=wrap;html=1;rounded=1;shadow=0;comic=0;labelBackgroundColor=none;strokeWidth=1;fontFamily=Verdana;fontSize=12;align=center;fillColor=#F2CC8F;strokeColor=#E07A5F;fontColor=#393C56;" vertex="1" parent="1">
          <mxGeometry x="290" y="50" width="753" height="250" as="geometry" />
        </mxCell>
        <mxCell id="I0mo_aROr3pK9CHTKxfO-97" value="" style="ellipse;html=1;shape=endState;fillColor=#F2CC8F;strokeColor=#E07A5F;rounded=1;shadow=0;comic=0;labelBackgroundColor=none;fontFamily=Verdana;fontSize=12;fontColor=#393C56;align=center;" vertex="1" parent="I0mo_aROr3pK9CHTKxfO-96">
          <mxGeometry x="653" y="135.99999999999997" width="30" height="30" as="geometry" />
        </mxCell>
        <mxCell id="I0mo_aROr3pK9CHTKxfO-98" style="edgeStyle=orthogonalEdgeStyle;rounded=0;orthogonalLoop=1;jettySize=auto;html=1;entryX=0;entryY=0.5;entryDx=0;entryDy=0;strokeColor=#E07A5F;fontColor=#393C56;fillColor=#F2CC8F;" edge="1" parent="I0mo_aROr3pK9CHTKxfO-96" source="I0mo_aROr3pK9CHTKxfO-99" target="I0mo_aROr3pK9CHTKxfO-116">
          <mxGeometry relative="1" as="geometry" />
        </mxCell>
        <mxCell id="I0mo_aROr3pK9CHTKxfO-99" value="" style="ellipse;html=1;shape=startState;fillColor=#F2CC8F;strokeColor=#E07A5F;rounded=1;shadow=0;comic=0;labelBackgroundColor=none;fontFamily=Verdana;fontSize=12;fontColor=#393C56;align=center;direction=south;" vertex="1" parent="I0mo_aROr3pK9CHTKxfO-96">
          <mxGeometry x="17" y="135.99999999999997" width="30" height="30" as="geometry" />
        </mxCell>
        <mxCell id="I0mo_aROr3pK9CHTKxfO-100" style="edgeStyle=orthogonalEdgeStyle;rounded=0;orthogonalLoop=1;jettySize=auto;html=1;entryX=0.5;entryY=0;entryDx=0;entryDy=0;strokeColor=#E07A5F;fontColor=#393C56;fillColor=#F2CC8F;" edge="1" parent="I0mo_aROr3pK9CHTKxfO-96">
          <mxGeometry relative="1" as="geometry">
            <mxPoint x="205" y="395" as="sourcePoint" />
          </mxGeometry>
        </mxCell>
        <mxCell id="I0mo_aROr3pK9CHTKxfO-101" value="True" style="edgeLabel;html=1;align=center;verticalAlign=middle;resizable=0;points=[];strokeColor=#E07A5F;fontColor=#393C56;fillColor=#F2CC8F;" vertex="1" connectable="0" parent="I0mo_aROr3pK9CHTKxfO-100">
          <mxGeometry x="-0.1667" y="3" relative="1" as="geometry">
            <mxPoint x="-23" y="-15" as="offset" />
          </mxGeometry>
        </mxCell>
        <mxCell id="I0mo_aROr3pK9CHTKxfO-102" style="edgeStyle=orthogonalEdgeStyle;rounded=0;orthogonalLoop=1;jettySize=auto;html=1;strokeColor=#E07A5F;fontColor=#393C56;fillColor=#F2CC8F;" edge="1" parent="I0mo_aROr3pK9CHTKxfO-96">
          <mxGeometry relative="1" as="geometry">
            <mxPoint x="370" y="395" as="sourcePoint" />
          </mxGeometry>
        </mxCell>
        <mxCell id="I0mo_aROr3pK9CHTKxfO-103" value="True" style="edgeLabel;html=1;align=center;verticalAlign=middle;resizable=0;points=[];strokeColor=#E07A5F;fontColor=#393C56;fillColor=#F2CC8F;" vertex="1" connectable="0" parent="I0mo_aROr3pK9CHTKxfO-102">
          <mxGeometry x="-0.6222" y="-1" relative="1" as="geometry">
            <mxPoint x="-19" as="offset" />
          </mxGeometry>
        </mxCell>
        <mxCell id="I0mo_aROr3pK9CHTKxfO-104" style="edgeStyle=orthogonalEdgeStyle;rounded=0;orthogonalLoop=1;jettySize=auto;html=1;exitX=0.5;exitY=1;exitDx=0;exitDy=0;strokeColor=#E07A5F;fontColor=#393C56;fillColor=#F2CC8F;" edge="1" parent="I0mo_aROr3pK9CHTKxfO-96">
          <mxGeometry relative="1" as="geometry">
            <mxPoint x="530" y="395" as="sourcePoint" />
          </mxGeometry>
        </mxCell>
        <mxCell id="I0mo_aROr3pK9CHTKxfO-105" value="True" style="edgeLabel;html=1;align=center;verticalAlign=middle;resizable=0;points=[];strokeColor=#E07A5F;fontColor=#393C56;fillColor=#F2CC8F;" vertex="1" connectable="0" parent="I0mo_aROr3pK9CHTKxfO-104">
          <mxGeometry x="-0.687" y="1" relative="1" as="geometry">
            <mxPoint x="-16" as="offset" />
          </mxGeometry>
        </mxCell>
        <mxCell id="I0mo_aROr3pK9CHTKxfO-106" style="edgeStyle=orthogonalEdgeStyle;rounded=0;orthogonalLoop=1;jettySize=auto;html=1;entryX=0;entryY=0.5;entryDx=0;entryDy=0;strokeColor=#E07A5F;fontColor=#393C56;fillColor=#F2CC8F;" edge="1" parent="I0mo_aROr3pK9CHTKxfO-96">
          <mxGeometry relative="1" as="geometry">
            <mxPoint x="684.9999999999995" y="394.99999999999955" as="sourcePoint" />
          </mxGeometry>
        </mxCell>
        <mxCell id="I0mo_aROr3pK9CHTKxfO-107" style="edgeStyle=orthogonalEdgeStyle;rounded=0;orthogonalLoop=1;jettySize=auto;html=1;entryX=0;entryY=0.5;entryDx=0;entryDy=0;strokeColor=#E07A5F;fontColor=#393C56;fillColor=#F2CC8F;" edge="1" parent="I0mo_aROr3pK9CHTKxfO-96" source="I0mo_aROr3pK9CHTKxfO-108" target="I0mo_aROr3pK9CHTKxfO-111">
          <mxGeometry relative="1" as="geometry" />
        </mxCell>
        <mxCell id="I0mo_aROr3pK9CHTKxfO-108" value="Enter min/max values sequentially" style="shape=process;whiteSpace=wrap;html=1;backgroundOutline=1;strokeColor=#E07A5F;fontColor=#393C56;fillColor=#F2CC8F;" vertex="1" parent="I0mo_aROr3pK9CHTKxfO-96">
          <mxGeometry x="299" y="121" width="120" height="60" as="geometry" />
        </mxCell>
        <mxCell id="I0mo_aROr3pK9CHTKxfO-109" style="edgeStyle=orthogonalEdgeStyle;rounded=0;orthogonalLoop=1;jettySize=auto;html=1;strokeColor=#E07A5F;fontColor=#393C56;fillColor=#F2CC8F;" edge="1" parent="I0mo_aROr3pK9CHTKxfO-96" source="I0mo_aROr3pK9CHTKxfO-111" target="I0mo_aROr3pK9CHTKxfO-97">
          <mxGeometry relative="1" as="geometry" />
        </mxCell>
        <mxCell id="I0mo_aROr3pK9CHTKxfO-110" value="False" style="edgeLabel;html=1;align=center;verticalAlign=middle;resizable=0;points=[];strokeColor=#E07A5F;fontColor=#393C56;fillColor=#F2CC8F;" vertex="1" connectable="0" parent="I0mo_aROr3pK9CHTKxfO-109">
          <mxGeometry x="-0.2407" relative="1" as="geometry">
            <mxPoint x="-3" y="-15" as="offset" />
          </mxGeometry>
        </mxCell>
        <mxCell id="I0mo_aROr3pK9CHTKxfO-111" value="max &amp;lt; min" style="rhombus;whiteSpace=wrap;html=1;strokeColor=#E07A5F;fontColor=#393C56;fillColor=#F2CC8F;" vertex="1" parent="I0mo_aROr3pK9CHTKxfO-96">
          <mxGeometry x="509" y="111" width="80" height="80" as="geometry" />
        </mxCell>
        <mxCell id="I0mo_aROr3pK9CHTKxfO-112" style="edgeStyle=orthogonalEdgeStyle;rounded=0;orthogonalLoop=1;jettySize=auto;html=1;entryX=0.5;entryY=0;entryDx=0;entryDy=0;strokeColor=#E07A5F;fontColor=#393C56;fillColor=#F2CC8F;" edge="1" parent="I0mo_aROr3pK9CHTKxfO-96" source="I0mo_aROr3pK9CHTKxfO-111" target="I0mo_aROr3pK9CHTKxfO-108">
          <mxGeometry relative="1" as="geometry">
            <Array as="points">
              <mxPoint x="549" y="67" />
              <mxPoint x="359" y="67" />
            </Array>
          </mxGeometry>
        </mxCell>
        <mxCell id="I0mo_aROr3pK9CHTKxfO-113" value="True" style="edgeLabel;html=1;align=center;verticalAlign=middle;resizable=0;points=[];strokeColor=#E07A5F;fontColor=#393C56;fillColor=#F2CC8F;" vertex="1" connectable="0" parent="I0mo_aROr3pK9CHTKxfO-112">
          <mxGeometry x="-0.8233" y="-1" relative="1" as="geometry">
            <mxPoint x="-21" y="2" as="offset" />
          </mxGeometry>
        </mxCell>
        <mxCell id="I0mo_aROr3pK9CHTKxfO-114" value="Change state&lt;br&gt;&lt;div&gt;to&lt;/div&gt;&lt;div&gt;SETUP&lt;/div&gt;" style="text;html=1;align=center;verticalAlign=middle;whiteSpace=wrap;rounded=0;fontColor=#393C56;" vertex="1" parent="I0mo_aROr3pK9CHTKxfO-96">
          <mxGeometry x="638" y="177" width="60" height="50" as="geometry" />
        </mxCell>
        <mxCell id="I0mo_aROr3pK9CHTKxfO-115" style="edgeStyle=orthogonalEdgeStyle;rounded=0;orthogonalLoop=1;jettySize=auto;html=1;entryX=0;entryY=0.5;entryDx=0;entryDy=0;strokeColor=#E07A5F;fontColor=#393C56;fillColor=#F2CC8F;" edge="1" parent="I0mo_aROr3pK9CHTKxfO-96" source="I0mo_aROr3pK9CHTKxfO-116" target="I0mo_aROr3pK9CHTKxfO-108">
          <mxGeometry relative="1" as="geometry" />
        </mxCell>
        <mxCell id="I0mo_aROr3pK9CHTKxfO-116" value="SETUP_TEMP" style="rounded=1;whiteSpace=wrap;html=1;arcSize=24;fillColor=#F2CC8F;strokeColor=#E07A5F;shadow=0;comic=0;labelBackgroundColor=none;fontFamily=Verdana;fontSize=12;fontColor=#393C56;align=center;" vertex="1" parent="I0mo_aROr3pK9CHTKxfO-96">
          <mxGeometry x="119" y="121" width="120" height="60" as="geometry" />
        </mxCell>
        <mxCell id="I0mo_aROr3pK9CHTKxfO-117" value="CONNECTED" style="swimlane;whiteSpace=wrap;html=1;rounded=1;shadow=0;comic=0;labelBackgroundColor=none;strokeWidth=1;fontFamily=Verdana;fontSize=12;align=center;fillColor=#F2CC8F;strokeColor=#E07A5F;fontColor=#393C56;startSize=23;" vertex="1" parent="1">
          <mxGeometry x="-780" y="-880" width="768" height="532" as="geometry" />
        </mxCell>
        <mxCell id="I0mo_aROr3pK9CHTKxfO-118" style="edgeStyle=orthogonalEdgeStyle;rounded=0;orthogonalLoop=1;jettySize=auto;html=1;entryX=0.5;entryY=0;entryDx=0;entryDy=0;strokeColor=#E07A5F;fontColor=#393C56;fillColor=#F2CC8F;" edge="1" parent="I0mo_aROr3pK9CHTKxfO-117">
          <mxGeometry relative="1" as="geometry">
            <mxPoint x="205" y="305" as="targetPoint" />
          </mxGeometry>
        </mxCell>
        <mxCell id="I0mo_aROr3pK9CHTKxfO-119" style="edgeStyle=orthogonalEdgeStyle;rounded=0;orthogonalLoop=1;jettySize=auto;html=1;exitX=0.955;exitY=0.947;exitDx=0;exitDy=0;strokeColor=#E07A5F;fontColor=#393C56;fillColor=#F2CC8F;exitPerimeter=0;" edge="1" parent="I0mo_aROr3pK9CHTKxfO-117">
          <mxGeometry relative="1" as="geometry">
            <mxPoint x="259.59999999999945" y="246.81999999999994" as="sourcePoint" />
          </mxGeometry>
        </mxCell>
        <mxCell id="I0mo_aROr3pK9CHTKxfO-120" style="edgeStyle=orthogonalEdgeStyle;rounded=0;orthogonalLoop=1;jettySize=auto;html=1;strokeColor=#E07A5F;fontColor=#393C56;fillColor=#F2CC8F;exitX=1;exitY=0.13;exitDx=0;exitDy=0;exitPerimeter=0;" edge="1" parent="I0mo_aROr3pK9CHTKxfO-117">
          <mxGeometry relative="1" as="geometry">
            <mxPoint x="265" y="197.80000000000018" as="sourcePoint" />
          </mxGeometry>
        </mxCell>
        <mxCell id="I0mo_aROr3pK9CHTKxfO-121" style="edgeStyle=orthogonalEdgeStyle;rounded=0;orthogonalLoop=1;jettySize=auto;html=1;exitX=0.75;exitY=0;exitDx=0;exitDy=0;entryX=0.5;entryY=0;entryDx=0;entryDy=0;strokeColor=#E07A5F;fontColor=#393C56;fillColor=#F2CC8F;" edge="1" parent="I0mo_aROr3pK9CHTKxfO-117">
          <mxGeometry relative="1" as="geometry">
            <mxPoint x="685" y="305" as="targetPoint" />
          </mxGeometry>
        </mxCell>
        <mxCell id="I0mo_aROr3pK9CHTKxfO-122" style="edgeStyle=orthogonalEdgeStyle;rounded=0;orthogonalLoop=1;jettySize=auto;html=1;entryX=0;entryY=0.75;entryDx=0;entryDy=0;strokeColor=#E07A5F;fontColor=#393C56;fillColor=#F2CC8F;" edge="1" parent="I0mo_aROr3pK9CHTKxfO-117">
          <mxGeometry relative="1" as="geometry">
            <Array as="points">
              <mxPoint x="125" y="350" />
              <mxPoint x="125" y="235" />
            </Array>
            <mxPoint x="160" y="350" as="sourcePoint" />
          </mxGeometry>
        </mxCell>
        <mxCell id="I0mo_aROr3pK9CHTKxfO-123" value="False" style="edgeLabel;html=1;align=center;verticalAlign=middle;resizable=0;points=[];strokeColor=#E07A5F;fontColor=#393C56;fillColor=#F2CC8F;" vertex="1" connectable="0" parent="I0mo_aROr3pK9CHTKxfO-122">
          <mxGeometry x="-0.1529" y="-1" relative="1" as="geometry">
            <mxPoint x="19" y="22" as="offset" />
          </mxGeometry>
        </mxCell>
        <mxCell id="I0mo_aROr3pK9CHTKxfO-124" style="edgeStyle=orthogonalEdgeStyle;rounded=0;orthogonalLoop=1;jettySize=auto;html=1;entryX=0.5;entryY=0;entryDx=0;entryDy=0;strokeColor=#E07A5F;fontColor=#393C56;fillColor=#F2CC8F;" edge="1" parent="I0mo_aROr3pK9CHTKxfO-117">
          <mxGeometry relative="1" as="geometry">
            <mxPoint x="205" y="455.0000000000002" as="targetPoint" />
          </mxGeometry>
        </mxCell>
        <mxCell id="I0mo_aROr3pK9CHTKxfO-125" value="True" style="edgeLabel;html=1;align=center;verticalAlign=middle;resizable=0;points=[];strokeColor=#E07A5F;fontColor=#393C56;fillColor=#F2CC8F;" vertex="1" connectable="0" parent="I0mo_aROr3pK9CHTKxfO-124">
          <mxGeometry x="-0.1667" y="3" relative="1" as="geometry">
            <mxPoint x="-23" y="-15" as="offset" />
          </mxGeometry>
        </mxCell>
        <mxCell id="I0mo_aROr3pK9CHTKxfO-126" style="edgeStyle=orthogonalEdgeStyle;rounded=0;orthogonalLoop=1;jettySize=auto;html=1;strokeColor=#E07A5F;fontColor=#393C56;fillColor=#F2CC8F;" edge="1" parent="I0mo_aROr3pK9CHTKxfO-117">
          <mxGeometry relative="1" as="geometry">
            <mxPoint x="370" y="455.0000000000002" as="targetPoint" />
          </mxGeometry>
        </mxCell>
        <mxCell id="I0mo_aROr3pK9CHTKxfO-127" value="True" style="edgeLabel;html=1;align=center;verticalAlign=middle;resizable=0;points=[];strokeColor=#E07A5F;fontColor=#393C56;fillColor=#F2CC8F;" vertex="1" connectable="0" parent="I0mo_aROr3pK9CHTKxfO-126">
          <mxGeometry x="-0.6222" y="-1" relative="1" as="geometry">
            <mxPoint x="-19" as="offset" />
          </mxGeometry>
        </mxCell>
        <mxCell id="I0mo_aROr3pK9CHTKxfO-128" style="edgeStyle=orthogonalEdgeStyle;rounded=0;orthogonalLoop=1;jettySize=auto;html=1;exitX=0.5;exitY=1;exitDx=0;exitDy=0;strokeColor=#E07A5F;fontColor=#393C56;fillColor=#F2CC8F;" edge="1" parent="I0mo_aROr3pK9CHTKxfO-117">
          <mxGeometry relative="1" as="geometry">
            <mxPoint x="530" y="455.0000000000002" as="targetPoint" />
          </mxGeometry>
        </mxCell>
        <mxCell id="I0mo_aROr3pK9CHTKxfO-129" value="True" style="edgeLabel;html=1;align=center;verticalAlign=middle;resizable=0;points=[];strokeColor=#E07A5F;fontColor=#393C56;fillColor=#F2CC8F;" vertex="1" connectable="0" parent="I0mo_aROr3pK9CHTKxfO-128">
          <mxGeometry x="-0.687" y="1" relative="1" as="geometry">
            <mxPoint x="-16" as="offset" />
          </mxGeometry>
        </mxCell>
        <mxCell id="I0mo_aROr3pK9CHTKxfO-130" style="edgeStyle=orthogonalEdgeStyle;rounded=0;orthogonalLoop=1;jettySize=auto;html=1;entryX=0.86;entryY=0.995;entryDx=0;entryDy=0;entryPerimeter=0;strokeColor=#E07A5F;fontColor=#393C56;fillColor=#F2CC8F;" edge="1" parent="I0mo_aROr3pK9CHTKxfO-117">
          <mxGeometry relative="1" as="geometry">
            <Array as="points">
              <mxPoint x="270" y="350" />
              <mxPoint x="270" y="280" />
              <mxPoint x="248" y="280" />
            </Array>
            <mxPoint x="248.19999999999936" y="249.70000000000005" as="targetPoint" />
          </mxGeometry>
        </mxCell>
        <mxCell id="I0mo_aROr3pK9CHTKxfO-131" value="False" style="edgeLabel;html=1;align=center;verticalAlign=middle;resizable=0;points=[];strokeColor=#E07A5F;fontColor=#393C56;fillColor=#F2CC8F;" vertex="1" connectable="0" parent="I0mo_aROr3pK9CHTKxfO-130">
          <mxGeometry x="-0.5386" y="3" relative="1" as="geometry">
            <mxPoint x="26" y="-13" as="offset" />
          </mxGeometry>
        </mxCell>
        <mxCell id="I0mo_aROr3pK9CHTKxfO-132" style="edgeStyle=orthogonalEdgeStyle;rounded=0;orthogonalLoop=1;jettySize=auto;html=1;exitX=0;exitY=0.5;exitDx=0;exitDy=0;strokeColor=#E07A5F;fontColor=#393C56;fillColor=#F2CC8F;entryX=1;entryY=0.5;entryDx=0;entryDy=0;" edge="1" parent="I0mo_aROr3pK9CHTKxfO-117">
          <mxGeometry relative="1" as="geometry">
            <mxPoint x="265" y="220" as="targetPoint" />
            <Array as="points">
              <mxPoint x="450" y="350" />
              <mxPoint x="450" y="220" />
            </Array>
          </mxGeometry>
        </mxCell>
        <mxCell id="I0mo_aROr3pK9CHTKxfO-133" value="False" style="edgeLabel;html=1;align=center;verticalAlign=middle;resizable=0;points=[];strokeColor=#E07A5F;fontColor=#393C56;fillColor=#F2CC8F;" vertex="1" connectable="0" parent="I0mo_aROr3pK9CHTKxfO-132">
          <mxGeometry x="-0.8697" relative="1" as="geometry">
            <mxPoint x="8" y="-10" as="offset" />
          </mxGeometry>
        </mxCell>
        <mxCell id="I0mo_aROr3pK9CHTKxfO-134" style="edgeStyle=orthogonalEdgeStyle;rounded=0;orthogonalLoop=1;jettySize=auto;html=1;entryX=0;entryY=0.5;entryDx=0;entryDy=0;strokeColor=#E07A5F;fontColor=#393C56;fillColor=#F2CC8F;" edge="1" parent="I0mo_aROr3pK9CHTKxfO-117">
          <mxGeometry relative="1" as="geometry">
            <mxPoint x="710" y="485.0000000000002" as="targetPoint" />
          </mxGeometry>
        </mxCell>
        <mxCell id="I0mo_aROr3pK9CHTKxfO-135" style="edgeStyle=orthogonalEdgeStyle;rounded=0;orthogonalLoop=1;jettySize=auto;html=1;entryX=0;entryY=0.5;entryDx=0;entryDy=0;strokeColor=#E07A5F;fontColor=#393C56;fillColor=#F2CC8F;" edge="1" parent="I0mo_aROr3pK9CHTKxfO-117" source="I0mo_aROr3pK9CHTKxfO-136" target="I0mo_aROr3pK9CHTKxfO-149">
          <mxGeometry relative="1" as="geometry" />
        </mxCell>
        <mxCell id="I0mo_aROr3pK9CHTKxfO-136" value="" style="ellipse;html=1;shape=startState;fillColor=#F2CC8F;strokeColor=#E07A5F;rounded=1;shadow=0;comic=0;labelBackgroundColor=none;fontFamily=Verdana;fontSize=12;fontColor=#393C56;align=center;direction=south;" vertex="1" parent="I0mo_aROr3pK9CHTKxfO-117">
          <mxGeometry x="20" y="195" width="30" height="30" as="geometry" />
        </mxCell>
        <mxCell id="I0mo_aROr3pK9CHTKxfO-137" style="edgeStyle=orthogonalEdgeStyle;rounded=0;orthogonalLoop=1;jettySize=auto;html=1;entryX=0.016;entryY=0.503;entryDx=0;entryDy=0;strokeColor=#E07A5F;fontColor=#393C56;fillColor=#F2CC8F;entryPerimeter=0;exitX=0.75;exitY=0;exitDx=0;exitDy=0;" edge="1" parent="I0mo_aROr3pK9CHTKxfO-117" source="I0mo_aROr3pK9CHTKxfO-149" target="I0mo_aROr3pK9CHTKxfO-140">
          <mxGeometry relative="1" as="geometry">
            <mxPoint x="250.00000000000045" y="210" as="sourcePoint" />
            <Array as="points">
              <mxPoint x="220" y="155" />
            </Array>
          </mxGeometry>
        </mxCell>
        <mxCell id="I0mo_aROr3pK9CHTKxfO-138" style="edgeStyle=orthogonalEdgeStyle;rounded=0;orthogonalLoop=1;jettySize=auto;html=1;strokeColor=#E07A5F;fontColor=#393C56;fillColor=#F2CC8F;exitX=0.5;exitY=0;exitDx=0;exitDy=0;entryX=0.5;entryY=0;entryDx=0;entryDy=0;" edge="1" parent="I0mo_aROr3pK9CHTKxfO-117" source="I0mo_aROr3pK9CHTKxfO-140" target="I0mo_aROr3pK9CHTKxfO-149">
          <mxGeometry relative="1" as="geometry">
            <mxPoint x="190" y="160" as="targetPoint" />
            <Array as="points">
              <mxPoint x="435" y="100" />
              <mxPoint x="190" y="100" />
            </Array>
          </mxGeometry>
        </mxCell>
        <mxCell id="I0mo_aROr3pK9CHTKxfO-139" value="False" style="edgeLabel;html=1;align=center;verticalAlign=middle;resizable=0;points=[];strokeColor=#E07A5F;fontColor=#393C56;fillColor=#F2CC8F;" vertex="1" connectable="0" parent="I0mo_aROr3pK9CHTKxfO-138">
          <mxGeometry x="-0.8988" y="1" relative="1" as="geometry">
            <mxPoint x="-18" y="9" as="offset" />
          </mxGeometry>
        </mxCell>
        <mxCell id="I0mo_aROr3pK9CHTKxfO-140" value="BT&lt;div&gt;Disconnection Detected&lt;/div&gt;" style="rhombus;whiteSpace=wrap;html=1;strokeColor=#E07A5F;fontColor=#393C56;fillColor=#F2CC8F;" vertex="1" parent="I0mo_aROr3pK9CHTKxfO-117">
          <mxGeometry x="390" y="110" width="90" height="90" as="geometry" />
        </mxCell>
        <mxCell id="I0mo_aROr3pK9CHTKxfO-141" style="edgeStyle=orthogonalEdgeStyle;rounded=0;orthogonalLoop=1;jettySize=auto;html=1;exitX=0;exitY=0.5;exitDx=0;exitDy=0;strokeColor=#E07A5F;fontColor=#393C56;fillColor=#F2CC8F;entryX=0.25;entryY=1;entryDx=0;entryDy=0;" edge="1" parent="I0mo_aROr3pK9CHTKxfO-117" source="I0mo_aROr3pK9CHTKxfO-145" target="I0mo_aROr3pK9CHTKxfO-149">
          <mxGeometry relative="1" as="geometry">
            <mxPoint x="230" y="240" as="targetPoint" />
            <Array as="points">
              <mxPoint x="120" y="340" />
              <mxPoint x="120" y="270" />
              <mxPoint x="160" y="270" />
            </Array>
          </mxGeometry>
        </mxCell>
        <mxCell id="I0mo_aROr3pK9CHTKxfO-142" value="False" style="edgeLabel;html=1;align=center;verticalAlign=middle;resizable=0;points=[];strokeColor=#E07A5F;fontColor=#393C56;fillColor=#F2CC8F;" vertex="1" connectable="0" parent="I0mo_aROr3pK9CHTKxfO-141">
          <mxGeometry x="-0.3499" relative="1" as="geometry">
            <mxPoint x="10" y="39" as="offset" />
          </mxGeometry>
        </mxCell>
        <mxCell id="I0mo_aROr3pK9CHTKxfO-143" style="edgeStyle=orthogonalEdgeStyle;rounded=0;orthogonalLoop=1;jettySize=auto;html=1;entryX=0.5;entryY=0;entryDx=0;entryDy=0;strokeColor=#E07A5F;fontColor=#393C56;fillColor=#F2CC8F;" edge="1" parent="I0mo_aROr3pK9CHTKxfO-117" source="I0mo_aROr3pK9CHTKxfO-145" target="I0mo_aROr3pK9CHTKxfO-162">
          <mxGeometry relative="1" as="geometry" />
        </mxCell>
        <mxCell id="I0mo_aROr3pK9CHTKxfO-144" value="True" style="edgeLabel;html=1;align=center;verticalAlign=middle;resizable=0;points=[];strokeColor=#E07A5F;fontColor=#393C56;fillColor=#F2CC8F;" vertex="1" connectable="0" parent="I0mo_aROr3pK9CHTKxfO-143">
          <mxGeometry x="-0.5386" y="1" relative="1" as="geometry">
            <mxPoint x="-16" as="offset" />
          </mxGeometry>
        </mxCell>
        <mxCell id="I0mo_aROr3pK9CHTKxfO-145" value="Setup&lt;div&gt;option&lt;/div&gt;&lt;div&gt;selected&lt;/div&gt;" style="rhombus;whiteSpace=wrap;html=1;strokeColor=#E07A5F;fontColor=#393C56;fillColor=#F2CC8F;" vertex="1" parent="I0mo_aROr3pK9CHTKxfO-117">
          <mxGeometry x="145" y="295" width="90" height="90" as="geometry" />
        </mxCell>
        <mxCell id="I0mo_aROr3pK9CHTKxfO-146" style="edgeStyle=orthogonalEdgeStyle;rounded=0;orthogonalLoop=1;jettySize=auto;html=1;entryX=0.5;entryY=0;entryDx=0;entryDy=0;strokeColor=#E07A5F;fontColor=#393C56;fillColor=#F2CC8F;" edge="1" parent="I0mo_aROr3pK9CHTKxfO-117" source="I0mo_aROr3pK9CHTKxfO-149" target="I0mo_aROr3pK9CHTKxfO-145">
          <mxGeometry relative="1" as="geometry" />
        </mxCell>
        <mxCell id="I0mo_aROr3pK9CHTKxfO-147" style="edgeStyle=orthogonalEdgeStyle;rounded=0;orthogonalLoop=1;jettySize=auto;html=1;exitX=1;exitY=0.75;exitDx=0;exitDy=0;entryX=0;entryY=0.5;entryDx=0;entryDy=0;strokeColor=#E07A5F;fontColor=#393C56;fillColor=#F2CC8F;" edge="1" parent="I0mo_aROr3pK9CHTKxfO-117" source="I0mo_aROr3pK9CHTKxfO-149" target="I0mo_aROr3pK9CHTKxfO-152">
          <mxGeometry relative="1" as="geometry">
            <Array as="points">
              <mxPoint x="250" y="220" />
              <mxPoint x="400" y="220" />
              <mxPoint x="400" y="235" />
            </Array>
          </mxGeometry>
        </mxCell>
        <mxCell id="I0mo_aROr3pK9CHTKxfO-148" style="edgeStyle=orthogonalEdgeStyle;rounded=0;orthogonalLoop=1;jettySize=auto;html=1;exitX=0.75;exitY=1;exitDx=0;exitDy=0;entryX=0;entryY=0.5;entryDx=0;entryDy=0;strokeColor=#E07A5F;fontColor=#393C56;fillColor=#F2CC8F;" edge="1" parent="I0mo_aROr3pK9CHTKxfO-117" source="I0mo_aROr3pK9CHTKxfO-149" target="I0mo_aROr3pK9CHTKxfO-155">
          <mxGeometry relative="1" as="geometry">
            <Array as="points">
              <mxPoint x="220" y="300" />
              <mxPoint x="260" y="300" />
              <mxPoint x="260" y="395" />
            </Array>
          </mxGeometry>
        </mxCell>
        <mxCell id="I0mo_aROr3pK9CHTKxfO-149" value="CONNECTED" style="rounded=1;whiteSpace=wrap;html=1;arcSize=24;fillColor=#F2CC8F;strokeColor=#E07A5F;shadow=0;comic=0;labelBackgroundColor=none;fontFamily=Verdana;fontSize=12;fontColor=#393C56;align=center;" vertex="1" parent="I0mo_aROr3pK9CHTKxfO-117">
          <mxGeometry x="130" y="180" width="120" height="60" as="geometry" />
        </mxCell>
        <mxCell id="I0mo_aROr3pK9CHTKxfO-150" style="edgeStyle=orthogonalEdgeStyle;rounded=0;orthogonalLoop=1;jettySize=auto;html=1;strokeColor=#E07A5F;fontColor=#393C56;fillColor=#F2CC8F;exitX=1;exitY=0.5;exitDx=0;exitDy=0;entryX=0.5;entryY=1;entryDx=0;entryDy=0;" edge="1" parent="I0mo_aROr3pK9CHTKxfO-117" source="I0mo_aROr3pK9CHTKxfO-152" target="I0mo_aROr3pK9CHTKxfO-158">
          <mxGeometry relative="1" as="geometry">
            <mxPoint x="-40" y="50" as="targetPoint" />
            <Array as="points">
              <mxPoint x="698" y="235" />
              <mxPoint x="698" y="177" />
            </Array>
          </mxGeometry>
        </mxCell>
        <mxCell id="I0mo_aROr3pK9CHTKxfO-151" value="True" style="edgeLabel;html=1;align=center;verticalAlign=middle;resizable=0;points=[];strokeColor=#E07A5F;fontColor=#393C56;fillColor=#F2CC8F;" vertex="1" connectable="0" parent="I0mo_aROr3pK9CHTKxfO-150">
          <mxGeometry x="-0.9357" y="1" relative="1" as="geometry">
            <mxPoint x="16" y="14" as="offset" />
          </mxGeometry>
        </mxCell>
        <mxCell id="I0mo_aROr3pK9CHTKxfO-152" value="Disconnect&lt;div&gt;option&lt;/div&gt;&lt;div&gt;selected&lt;/div&gt;" style="rhombus;whiteSpace=wrap;html=1;strokeColor=#E07A5F;fontColor=#393C56;fillColor=#F2CC8F;" vertex="1" parent="I0mo_aROr3pK9CHTKxfO-117">
          <mxGeometry x="530" y="190" width="90" height="90" as="geometry" />
        </mxCell>
        <mxCell id="I0mo_aROr3pK9CHTKxfO-153" style="edgeStyle=orthogonalEdgeStyle;rounded=0;orthogonalLoop=1;jettySize=auto;html=1;strokeColor=#E07A5F;fontColor=#393C56;fillColor=#F2CC8F;exitX=0.315;exitY=0.823;exitDx=0;exitDy=0;entryX=1.009;entryY=0.857;entryDx=0;entryDy=0;entryPerimeter=0;exitPerimeter=0;" edge="1" parent="I0mo_aROr3pK9CHTKxfO-117" source="I0mo_aROr3pK9CHTKxfO-152" target="I0mo_aROr3pK9CHTKxfO-149">
          <mxGeometry relative="1" as="geometry">
            <mxPoint x="251" y="219" as="targetPoint" />
            <Array as="points">
              <mxPoint x="558" y="270" />
              <mxPoint x="380" y="270" />
              <mxPoint x="380" y="231" />
            </Array>
          </mxGeometry>
        </mxCell>
        <mxCell id="I0mo_aROr3pK9CHTKxfO-154" value="False" style="edgeLabel;html=1;align=center;verticalAlign=middle;resizable=0;points=[];strokeColor=#E07A5F;fontColor=#393C56;fillColor=#F2CC8F;" vertex="1" connectable="0" parent="I0mo_aROr3pK9CHTKxfO-153">
          <mxGeometry x="-0.5206" y="-1" relative="1" as="geometry">
            <mxPoint x="67" y="11" as="offset" />
          </mxGeometry>
        </mxCell>
        <mxCell id="I0mo_aROr3pK9CHTKxfO-155" value="Read&lt;div&gt;option&lt;/div&gt;&lt;div&gt;selected&lt;/div&gt;" style="rhombus;whiteSpace=wrap;html=1;strokeColor=#E07A5F;fontColor=#393C56;fillColor=#F2CC8F;" vertex="1" parent="I0mo_aROr3pK9CHTKxfO-117">
          <mxGeometry x="330" y="350" width="90" height="90" as="geometry" />
        </mxCell>
        <mxCell id="I0mo_aROr3pK9CHTKxfO-156" style="edgeStyle=orthogonalEdgeStyle;rounded=0;orthogonalLoop=1;jettySize=auto;html=1;entryX=0.895;entryY=1.024;entryDx=0;entryDy=0;entryPerimeter=0;strokeColor=#E07A5F;fontColor=#393C56;fillColor=#F2CC8F;exitX=0.352;exitY=0.14;exitDx=0;exitDy=0;exitPerimeter=0;" edge="1" parent="I0mo_aROr3pK9CHTKxfO-117" source="I0mo_aROr3pK9CHTKxfO-155" target="I0mo_aROr3pK9CHTKxfO-149">
          <mxGeometry relative="1" as="geometry">
            <Array as="points">
              <mxPoint x="362" y="260" />
              <mxPoint x="237" y="260" />
            </Array>
          </mxGeometry>
        </mxCell>
        <mxCell id="I0mo_aROr3pK9CHTKxfO-157" value="False" style="edgeLabel;html=1;align=center;verticalAlign=middle;resizable=0;points=[];strokeColor=#E07A5F;fontColor=#393C56;fillColor=#F2CC8F;" vertex="1" connectable="0" parent="I0mo_aROr3pK9CHTKxfO-156">
          <mxGeometry x="-0.6941" y="-2" relative="1" as="geometry">
            <mxPoint x="-24" y="25" as="offset" />
          </mxGeometry>
        </mxCell>
        <mxCell id="I0mo_aROr3pK9CHTKxfO-158" value="" style="ellipse;html=1;shape=endState;fillColor=#F2CC8F;strokeColor=#E07A5F;rounded=1;shadow=0;comic=0;labelBackgroundColor=none;fontFamily=Verdana;fontSize=12;fontColor=#393C56;align=center;" vertex="1" parent="I0mo_aROr3pK9CHTKxfO-117">
          <mxGeometry x="682.5" y="112" width="30" height="30" as="geometry" />
        </mxCell>
        <mxCell id="I0mo_aROr3pK9CHTKxfO-159" value="Change state to DISCONNECTED" style="text;html=1;align=center;verticalAlign=middle;whiteSpace=wrap;rounded=0;fontColor=#393C56;" vertex="1" parent="I0mo_aROr3pK9CHTKxfO-117">
          <mxGeometry x="646" y="73" width="103" height="28" as="geometry" />
        </mxCell>
        <mxCell id="I0mo_aROr3pK9CHTKxfO-160" style="edgeStyle=orthogonalEdgeStyle;rounded=0;orthogonalLoop=1;jettySize=auto;html=1;strokeColor=#E07A5F;fontColor=#393C56;fillColor=#F2CC8F;exitX=1;exitY=0.5;exitDx=0;exitDy=0;entryX=0;entryY=0.5;entryDx=0;entryDy=0;" edge="1" parent="I0mo_aROr3pK9CHTKxfO-117" source="I0mo_aROr3pK9CHTKxfO-140" target="I0mo_aROr3pK9CHTKxfO-158">
          <mxGeometry relative="1" as="geometry">
            <mxPoint x="-40" y="80" as="targetPoint" />
            <Array as="points">
              <mxPoint x="510" y="155" />
              <mxPoint x="510" y="127" />
            </Array>
          </mxGeometry>
        </mxCell>
        <mxCell id="I0mo_aROr3pK9CHTKxfO-161" value="True" style="edgeLabel;html=1;align=center;verticalAlign=middle;resizable=0;points=[];strokeColor=#E07A5F;fontColor=#393C56;fillColor=#F2CC8F;" vertex="1" connectable="0" parent="I0mo_aROr3pK9CHTKxfO-160">
          <mxGeometry x="-0.8754" y="-1" relative="1" as="geometry">
            <mxPoint x="-21" y="21" as="offset" />
          </mxGeometry>
        </mxCell>
        <mxCell id="I0mo_aROr3pK9CHTKxfO-162" value="" style="ellipse;html=1;shape=endState;fillColor=#F2CC8F;strokeColor=#E07A5F;rounded=1;shadow=0;comic=0;labelBackgroundColor=none;fontFamily=Verdana;fontSize=12;fontColor=#393C56;align=center;" vertex="1" parent="I0mo_aROr3pK9CHTKxfO-117">
          <mxGeometry x="175" y="420" width="30" height="30" as="geometry" />
        </mxCell>
        <mxCell id="I0mo_aROr3pK9CHTKxfO-163" value="Change state to SETUP" style="text;html=1;align=center;verticalAlign=middle;whiteSpace=wrap;rounded=0;fontColor=#393C56;" vertex="1" parent="I0mo_aROr3pK9CHTKxfO-117">
          <mxGeometry x="146.25" y="459" width="87.5" height="28" as="geometry" />
        </mxCell>
        <mxCell id="I0mo_aROr3pK9CHTKxfO-164" value="" style="ellipse;html=1;shape=endState;fillColor=#F2CC8F;strokeColor=#E07A5F;rounded=1;shadow=0;comic=0;labelBackgroundColor=none;fontFamily=Verdana;fontSize=12;fontColor=#393C56;align=center;" vertex="1" parent="I0mo_aROr3pK9CHTKxfO-117">
          <mxGeometry x="580" y="380" width="30" height="30" as="geometry" />
        </mxCell>
        <mxCell id="I0mo_aROr3pK9CHTKxfO-165" value="Change state to READING" style="text;html=1;align=center;verticalAlign=middle;whiteSpace=wrap;rounded=0;fontColor=#393C56;" vertex="1" parent="I0mo_aROr3pK9CHTKxfO-117">
          <mxGeometry x="551.25" y="416" width="87.5" height="28" as="geometry" />
        </mxCell>
        <mxCell id="I0mo_aROr3pK9CHTKxfO-166" style="edgeStyle=orthogonalEdgeStyle;rounded=0;orthogonalLoop=1;jettySize=auto;html=1;strokeColor=#E07A5F;fontColor=#393C56;fillColor=#F2CC8F;entryX=0;entryY=0.5;entryDx=0;entryDy=0;" edge="1" parent="I0mo_aROr3pK9CHTKxfO-117" source="I0mo_aROr3pK9CHTKxfO-155" target="I0mo_aROr3pK9CHTKxfO-164">
          <mxGeometry relative="1" as="geometry">
            <mxPoint x="517" y="439" as="targetPoint" />
            <Array as="points">
              <mxPoint x="557" y="395" />
              <mxPoint x="557" y="395" />
            </Array>
          </mxGeometry>
        </mxCell>
        <mxCell id="I0mo_aROr3pK9CHTKxfO-167" value="True" style="edgeLabel;html=1;align=center;verticalAlign=middle;resizable=0;points=[];strokeColor=#E07A5F;fontColor=#393C56;fillColor=#F2CC8F;" vertex="1" connectable="0" parent="I0mo_aROr3pK9CHTKxfO-166">
          <mxGeometry x="-0.7719" y="-2" relative="1" as="geometry">
            <mxPoint x="-7" y="8" as="offset" />
          </mxGeometry>
        </mxCell>
        <mxCell id="I0mo_aROr3pK9CHTKxfO-168" value="READING" style="swimlane;whiteSpace=wrap;html=1;rounded=1;shadow=0;comic=0;labelBackgroundColor=none;strokeWidth=1;fontFamily=Verdana;fontSize=12;align=center;fillColor=#F2CC8F;strokeColor=#E07A5F;fontColor=#393C56;" vertex="1" parent="1">
          <mxGeometry x="20" y="-880" width="786" height="420" as="geometry" />
        </mxCell>
        <mxCell id="I0mo_aROr3pK9CHTKxfO-169" style="edgeStyle=orthogonalEdgeStyle;rounded=0;orthogonalLoop=1;jettySize=auto;html=1;entryX=0;entryY=0.5;entryDx=0;entryDy=0;strokeColor=#E07A5F;fontColor=#393C56;fillColor=#F2CC8F;" edge="1" parent="I0mo_aROr3pK9CHTKxfO-168" source="I0mo_aROr3pK9CHTKxfO-170" target="I0mo_aROr3pK9CHTKxfO-172">
          <mxGeometry relative="1" as="geometry" />
        </mxCell>
        <mxCell id="I0mo_aROr3pK9CHTKxfO-170" value="" style="ellipse;html=1;shape=startState;fillColor=#F2CC8F;strokeColor=#E07A5F;rounded=1;shadow=0;comic=0;labelBackgroundColor=none;fontFamily=Verdana;fontSize=12;fontColor=#393C56;align=center;direction=south;" vertex="1" parent="I0mo_aROr3pK9CHTKxfO-168">
          <mxGeometry x="41" y="197" width="30" height="30" as="geometry" />
        </mxCell>
        <mxCell id="I0mo_aROr3pK9CHTKxfO-171" style="edgeStyle=orthogonalEdgeStyle;rounded=0;orthogonalLoop=1;jettySize=auto;html=1;entryX=0;entryY=0.5;entryDx=0;entryDy=0;strokeColor=#E07A5F;fontColor=#393C56;fillColor=#F2CC8F;" edge="1" parent="I0mo_aROr3pK9CHTKxfO-168" source="I0mo_aROr3pK9CHTKxfO-172" target="I0mo_aROr3pK9CHTKxfO-173">
          <mxGeometry relative="1" as="geometry" />
        </mxCell>
        <mxCell id="I0mo_aROr3pK9CHTKxfO-172" value="READING" style="rounded=1;whiteSpace=wrap;html=1;arcSize=24;fillColor=#F2CC8F;strokeColor=#E07A5F;shadow=0;comic=0;labelBackgroundColor=none;fontFamily=Verdana;fontSize=12;fontColor=#393C56;align=center;" vertex="1" parent="I0mo_aROr3pK9CHTKxfO-168">
          <mxGeometry x="141" y="182" width="120" height="60" as="geometry" />
        </mxCell>
        <mxCell id="I0mo_aROr3pK9CHTKxfO-173" value="Wait for incoming data" style="shape=process;whiteSpace=wrap;html=1;backgroundOutline=1;strokeColor=#E07A5F;fontColor=#393C56;fillColor=#F2CC8F;" vertex="1" parent="I0mo_aROr3pK9CHTKxfO-168">
          <mxGeometry x="307" y="182" width="120" height="60" as="geometry" />
        </mxCell>
        <mxCell id="I0mo_aROr3pK9CHTKxfO-174" style="edgeStyle=orthogonalEdgeStyle;rounded=0;orthogonalLoop=1;jettySize=auto;html=1;entryX=0.5;entryY=1;entryDx=0;entryDy=0;strokeColor=#E07A5F;fontColor=#393C56;fillColor=#F2CC8F;" edge="1" parent="I0mo_aROr3pK9CHTKxfO-168" source="I0mo_aROr3pK9CHTKxfO-177" target="I0mo_aROr3pK9CHTKxfO-183">
          <mxGeometry relative="1" as="geometry" />
        </mxCell>
        <mxCell id="I0mo_aROr3pK9CHTKxfO-175" value="False" style="edgeLabel;html=1;align=center;verticalAlign=middle;resizable=0;points=[];strokeColor=#E07A5F;fontColor=#393C56;fillColor=#F2CC8F;" vertex="1" connectable="0" parent="I0mo_aROr3pK9CHTKxfO-174">
          <mxGeometry x="-0.1915" relative="1" as="geometry">
            <mxPoint x="17" y="9" as="offset" />
          </mxGeometry>
        </mxCell>
        <mxCell id="I0mo_aROr3pK9CHTKxfO-176" style="edgeStyle=orthogonalEdgeStyle;rounded=0;orthogonalLoop=1;jettySize=auto;html=1;entryX=0.5;entryY=0;entryDx=0;entryDy=0;strokeColor=#E07A5F;fontColor=#393C56;fillColor=#F2CC8F;" edge="1" parent="I0mo_aROr3pK9CHTKxfO-168" source="I0mo_aROr3pK9CHTKxfO-177" target="I0mo_aROr3pK9CHTKxfO-188">
          <mxGeometry relative="1" as="geometry" />
        </mxCell>
        <mxCell id="I0mo_aROr3pK9CHTKxfO-177" value="Data&lt;div&gt;received is&lt;div&gt;valid&lt;/div&gt;&lt;/div&gt;" style="rhombus;whiteSpace=wrap;html=1;strokeColor=#E07A5F;fontColor=#393C56;fillColor=#F2CC8F;" vertex="1" parent="I0mo_aROr3pK9CHTKxfO-168">
          <mxGeometry x="486" y="172" width="80" height="80" as="geometry" />
        </mxCell>
        <mxCell id="I0mo_aROr3pK9CHTKxfO-178" style="edgeStyle=orthogonalEdgeStyle;rounded=0;orthogonalLoop=1;jettySize=auto;html=1;entryX=0;entryY=0.5;entryDx=0;entryDy=0;strokeColor=#E07A5F;fontColor=#393C56;fillColor=#F2CC8F;" edge="1" parent="I0mo_aROr3pK9CHTKxfO-168" source="I0mo_aROr3pK9CHTKxfO-173" target="I0mo_aROr3pK9CHTKxfO-177">
          <mxGeometry relative="1" as="geometry" />
        </mxCell>
        <mxCell id="I0mo_aROr3pK9CHTKxfO-179" style="edgeStyle=orthogonalEdgeStyle;rounded=0;orthogonalLoop=1;jettySize=auto;html=1;entryX=0.5;entryY=0;entryDx=0;entryDy=0;strokeColor=#E07A5F;fontColor=#393C56;fillColor=#F2CC8F;" edge="1" parent="I0mo_aROr3pK9CHTKxfO-168" source="I0mo_aROr3pK9CHTKxfO-183" target="I0mo_aROr3pK9CHTKxfO-173">
          <mxGeometry relative="1" as="geometry" />
        </mxCell>
        <mxCell id="I0mo_aROr3pK9CHTKxfO-180" value="True" style="edgeLabel;html=1;align=center;verticalAlign=middle;resizable=0;points=[];strokeColor=#E07A5F;fontColor=#393C56;fillColor=#F2CC8F;" vertex="1" connectable="0" parent="I0mo_aROr3pK9CHTKxfO-179">
          <mxGeometry x="-0.698" y="1" relative="1" as="geometry">
            <mxPoint x="18" y="-12" as="offset" />
          </mxGeometry>
        </mxCell>
        <mxCell id="I0mo_aROr3pK9CHTKxfO-181" style="edgeStyle=orthogonalEdgeStyle;rounded=0;orthogonalLoop=1;jettySize=auto;html=1;entryX=0;entryY=0.5;entryDx=0;entryDy=0;strokeColor=#E07A5F;fontColor=#393C56;fillColor=#F2CC8F;" edge="1" parent="I0mo_aROr3pK9CHTKxfO-168" source="I0mo_aROr3pK9CHTKxfO-183" target="I0mo_aROr3pK9CHTKxfO-186">
          <mxGeometry relative="1" as="geometry" />
        </mxCell>
        <mxCell id="I0mo_aROr3pK9CHTKxfO-182" value="False" style="edgeLabel;html=1;align=center;verticalAlign=middle;resizable=0;points=[];strokeColor=#E07A5F;fontColor=#393C56;fillColor=#F2CC8F;" vertex="1" connectable="0" parent="I0mo_aROr3pK9CHTKxfO-181">
          <mxGeometry x="-0.5716" y="1" relative="1" as="geometry">
            <mxPoint x="2" y="-10" as="offset" />
          </mxGeometry>
        </mxCell>
        <mxCell id="I0mo_aROr3pK9CHTKxfO-183" value="Attemps to read &amp;lt;= 3" style="rhombus;whiteSpace=wrap;html=1;strokeColor=#E07A5F;fontColor=#393C56;fillColor=#F2CC8F;" vertex="1" parent="I0mo_aROr3pK9CHTKxfO-168">
          <mxGeometry x="486" y="45" width="80" height="80" as="geometry" />
        </mxCell>
        <mxCell id="I0mo_aROr3pK9CHTKxfO-184" value="" style="ellipse;html=1;shape=endState;fillColor=#F2CC8F;strokeColor=#E07A5F;rounded=1;shadow=0;comic=0;labelBackgroundColor=none;fontFamily=Verdana;fontSize=12;fontColor=#393C56;align=center;" vertex="1" parent="I0mo_aROr3pK9CHTKxfO-168">
          <mxGeometry x="683.5" y="170" width="30" height="30" as="geometry" />
        </mxCell>
        <mxCell id="I0mo_aROr3pK9CHTKxfO-185" value="Change state to CONNECTED" style="text;html=1;align=center;verticalAlign=middle;whiteSpace=wrap;rounded=0;fontColor=#393C56;" vertex="1" parent="I0mo_aROr3pK9CHTKxfO-168">
          <mxGeometry x="654" y="210" width="89" height="50" as="geometry" />
        </mxCell>
        <mxCell id="I0mo_aROr3pK9CHTKxfO-186" value="Output Error Message" style="shape=process;whiteSpace=wrap;html=1;backgroundOutline=1;strokeColor=#E07A5F;fontColor=#393C56;fillColor=#F2CC8F;" vertex="1" parent="I0mo_aROr3pK9CHTKxfO-168">
          <mxGeometry x="638.5" y="55" width="120" height="60" as="geometry" />
        </mxCell>
        <mxCell id="I0mo_aROr3pK9CHTKxfO-187" style="edgeStyle=orthogonalEdgeStyle;rounded=0;orthogonalLoop=1;jettySize=auto;html=1;entryX=0.511;entryY=0.209;entryDx=0;entryDy=0;entryPerimeter=0;strokeColor=#E07A5F;fontColor=#393C56;fillColor=#F2CC8F;" edge="1" parent="I0mo_aROr3pK9CHTKxfO-168" source="I0mo_aROr3pK9CHTKxfO-186" target="I0mo_aROr3pK9CHTKxfO-184">
          <mxGeometry relative="1" as="geometry" />
        </mxCell>
        <mxCell id="I0mo_aROr3pK9CHTKxfO-188" value="" style="ellipse;html=1;shape=endState;fillColor=#F2CC8F;strokeColor=#E07A5F;rounded=1;shadow=0;comic=0;labelBackgroundColor=none;fontFamily=Verdana;fontSize=12;fontColor=#393C56;align=center;" vertex="1" parent="I0mo_aROr3pK9CHTKxfO-168">
          <mxGeometry x="511" y="310" width="30" height="30" as="geometry" />
        </mxCell>
        <mxCell id="I0mo_aROr3pK9CHTKxfO-189" value="Change state to PROCESSING" style="text;html=1;align=center;verticalAlign=middle;whiteSpace=wrap;rounded=0;fontColor=#393C56;" vertex="1" parent="I0mo_aROr3pK9CHTKxfO-168">
          <mxGeometry x="481.5" y="350" width="89" height="50" as="geometry" />
        </mxCell>
        <mxCell id="I0mo_aROr3pK9CHTKxfO-190" value="PROCESSING" style="swimlane;whiteSpace=wrap;html=1;rounded=1;shadow=0;comic=0;labelBackgroundColor=none;strokeWidth=1;fontFamily=Verdana;fontSize=12;align=center;fillColor=#F2CC8F;strokeColor=#E07A5F;fontColor=#393C56;" vertex="1" parent="1">
          <mxGeometry x="-510" y="-310" width="590" height="281" as="geometry" />
        </mxCell>
        <mxCell id="I0mo_aROr3pK9CHTKxfO-191" style="edgeStyle=orthogonalEdgeStyle;rounded=0;orthogonalLoop=1;jettySize=auto;html=1;entryX=0;entryY=0.5;entryDx=0;entryDy=0;strokeColor=#E07A5F;fontColor=#393C56;fillColor=#F2CC8F;" edge="1" parent="I0mo_aROr3pK9CHTKxfO-190" source="I0mo_aROr3pK9CHTKxfO-192" target="I0mo_aROr3pK9CHTKxfO-194">
          <mxGeometry relative="1" as="geometry" />
        </mxCell>
        <mxCell id="I0mo_aROr3pK9CHTKxfO-192" value="" style="ellipse;html=1;shape=startState;fillColor=#F2CC8F;strokeColor=#E07A5F;rounded=1;shadow=0;comic=0;labelBackgroundColor=none;fontFamily=Verdana;fontSize=12;fontColor=#393C56;align=center;direction=south;" vertex="1" parent="I0mo_aROr3pK9CHTKxfO-190">
          <mxGeometry x="43" y="162.75" width="30" height="30" as="geometry" />
        </mxCell>
        <mxCell id="I0mo_aROr3pK9CHTKxfO-193" style="edgeStyle=orthogonalEdgeStyle;rounded=0;orthogonalLoop=1;jettySize=auto;html=1;entryX=0;entryY=0.5;entryDx=0;entryDy=0;strokeColor=#E07A5F;fontColor=#393C56;fillColor=#F2CC8F;" edge="1" parent="I0mo_aROr3pK9CHTKxfO-190" source="I0mo_aROr3pK9CHTKxfO-194" target="I0mo_aROr3pK9CHTKxfO-200">
          <mxGeometry relative="1" as="geometry" />
        </mxCell>
        <mxCell id="I0mo_aROr3pK9CHTKxfO-194" value="PROCESSING" style="rounded=1;whiteSpace=wrap;html=1;arcSize=24;fillColor=#F2CC8F;strokeColor=#E07A5F;shadow=0;comic=0;labelBackgroundColor=none;fontFamily=Verdana;fontSize=12;fontColor=#393C56;align=center;" vertex="1" parent="I0mo_aROr3pK9CHTKxfO-190">
          <mxGeometry x="143" y="147.75" width="120" height="60" as="geometry" />
        </mxCell>
        <mxCell id="I0mo_aROr3pK9CHTKxfO-195" style="edgeStyle=orthogonalEdgeStyle;rounded=0;orthogonalLoop=1;jettySize=auto;html=1;strokeColor=#E07A5F;fontColor=#393C56;fillColor=#F2CC8F;" edge="1" parent="I0mo_aROr3pK9CHTKxfO-190" source="I0mo_aROr3pK9CHTKxfO-200" target="I0mo_aROr3pK9CHTKxfO-201">
          <mxGeometry relative="1" as="geometry" />
        </mxCell>
        <mxCell id="I0mo_aROr3pK9CHTKxfO-196" value="False" style="edgeLabel;html=1;align=center;verticalAlign=middle;resizable=0;points=[];strokeColor=#E07A5F;fontColor=#393C56;fillColor=#F2CC8F;" vertex="1" connectable="0" parent="I0mo_aROr3pK9CHTKxfO-195">
          <mxGeometry x="-0.259" y="1" relative="1" as="geometry">
            <mxPoint x="-17" y="7" as="offset" />
          </mxGeometry>
        </mxCell>
        <mxCell id="I0mo_aROr3pK9CHTKxfO-197" style="edgeStyle=orthogonalEdgeStyle;rounded=0;orthogonalLoop=1;jettySize=auto;html=1;strokeColor=#E07A5F;fontColor=#393C56;fillColor=#F2CC8F;entryX=0.133;entryY=0.558;entryDx=0;entryDy=0;entryPerimeter=0;" edge="1" parent="I0mo_aROr3pK9CHTKxfO-190" source="I0mo_aROr3pK9CHTKxfO-200" target="I0mo_aROr3pK9CHTKxfO-203">
          <mxGeometry relative="1" as="geometry">
            <mxPoint x="500" y="178" as="targetPoint" />
          </mxGeometry>
        </mxCell>
        <mxCell id="I0mo_aROr3pK9CHTKxfO-198" value="True" style="edgeLabel;html=1;align=center;verticalAlign=middle;resizable=0;points=[];strokeColor=#E07A5F;fontColor=#393C56;fillColor=#F2CC8F;" vertex="1" connectable="0" parent="I0mo_aROr3pK9CHTKxfO-197">
          <mxGeometry x="-0.2571" y="-2" relative="1" as="geometry">
            <mxPoint x="-52" y="-12" as="offset" />
          </mxGeometry>
        </mxCell>
        <mxCell id="I0mo_aROr3pK9CHTKxfO-199" value="True" style="edgeLabel;html=1;align=center;verticalAlign=middle;resizable=0;points=[];strokeColor=#E07A5F;fontColor=#393C56;fillColor=#F2CC8F;" vertex="1" connectable="0" parent="I0mo_aROr3pK9CHTKxfO-197">
          <mxGeometry x="-0.1412" y="-1" relative="1" as="geometry">
            <mxPoint x="-17" y="-18" as="offset" />
          </mxGeometry>
        </mxCell>
        <mxCell id="I0mo_aROr3pK9CHTKxfO-200" value="Data is out of acceptable&lt;div&gt;bounds&lt;/div&gt;" style="rhombus;whiteSpace=wrap;html=1;strokeColor=#E07A5F;fontColor=#393C56;fillColor=#F2CC8F;" vertex="1" parent="I0mo_aROr3pK9CHTKxfO-190">
          <mxGeometry x="323" y="121" width="113.5" height="113.5" as="geometry" />
        </mxCell>
        <mxCell id="I0mo_aROr3pK9CHTKxfO-201" value="" style="ellipse;html=1;shape=endState;fillColor=#F2CC8F;strokeColor=#E07A5F;rounded=1;shadow=0;comic=0;labelBackgroundColor=none;fontFamily=Verdana;fontSize=12;fontColor=#393C56;align=center;" vertex="1" parent="I0mo_aROr3pK9CHTKxfO-190">
          <mxGeometry x="364.75" y="46.00000000000006" width="30" height="30" as="geometry" />
        </mxCell>
        <mxCell id="I0mo_aROr3pK9CHTKxfO-202" value="Change state&lt;div&gt;to&lt;/div&gt;&lt;div&gt;CONNECTED&lt;/div&gt;" style="text;html=1;align=center;verticalAlign=middle;whiteSpace=wrap;rounded=0;fontColor=#393C56;" vertex="1" parent="I0mo_aROr3pK9CHTKxfO-190">
          <mxGeometry x="402" y="39" width="88" height="50" as="geometry" />
        </mxCell>
        <mxCell id="I0mo_aROr3pK9CHTKxfO-203" value="" style="ellipse;html=1;shape=endState;fillColor=#F2CC8F;strokeColor=#E07A5F;rounded=1;shadow=0;comic=0;labelBackgroundColor=none;fontFamily=Verdana;fontSize=12;fontColor=#393C56;align=center;" vertex="1" parent="I0mo_aROr3pK9CHTKxfO-190">
          <mxGeometry x="500" y="161.00000000000006" width="30" height="30" as="geometry" />
        </mxCell>
        <mxCell id="I0mo_aROr3pK9CHTKxfO-204" value="Change state&lt;div&gt;to&lt;/div&gt;&lt;div&gt;TRANSMITTING&lt;/div&gt;" style="text;html=1;align=center;verticalAlign=middle;whiteSpace=wrap;rounded=0;fontColor=#393C56;" vertex="1" parent="I0mo_aROr3pK9CHTKxfO-190">
          <mxGeometry x="471" y="192.75" width="88" height="50" as="geometry" />
        </mxCell>
        <mxCell id="I0mo_aROr3pK9CHTKxfO-205" value="TRANSMITTING" style="swimlane;whiteSpace=wrap;html=1;rounded=1;shadow=0;comic=0;labelBackgroundColor=none;strokeWidth=1;fontFamily=Verdana;fontSize=12;align=center;fillColor=#F2CC8F;strokeColor=#E07A5F;fontColor=#393C56;" vertex="1" parent="1">
          <mxGeometry x="120" y="-430" width="923" height="434" as="geometry" />
        </mxCell>
        <mxCell id="I0mo_aROr3pK9CHTKxfO-206" style="edgeStyle=orthogonalEdgeStyle;rounded=0;orthogonalLoop=1;jettySize=auto;html=1;entryX=0;entryY=0.5;entryDx=0;entryDy=0;strokeColor=#E07A5F;fontColor=#393C56;fillColor=#F2CC8F;" edge="1" parent="I0mo_aROr3pK9CHTKxfO-205" source="I0mo_aROr3pK9CHTKxfO-207" target="I0mo_aROr3pK9CHTKxfO-209">
          <mxGeometry relative="1" as="geometry" />
        </mxCell>
        <mxCell id="I0mo_aROr3pK9CHTKxfO-207" value="" style="ellipse;html=1;shape=startState;fillColor=#F2CC8F;strokeColor=#E07A5F;rounded=1;shadow=0;comic=0;labelBackgroundColor=none;fontFamily=Verdana;fontSize=12;fontColor=#393C56;align=center;direction=south;" vertex="1" parent="I0mo_aROr3pK9CHTKxfO-205">
          <mxGeometry x="57" y="270.12" width="30" height="30" as="geometry" />
        </mxCell>
        <mxCell id="I0mo_aROr3pK9CHTKxfO-208" style="edgeStyle=orthogonalEdgeStyle;rounded=0;orthogonalLoop=1;jettySize=auto;html=1;entryX=0;entryY=0.5;entryDx=0;entryDy=0;strokeColor=#E07A5F;fontColor=#393C56;fillColor=#F2CC8F;" edge="1" parent="I0mo_aROr3pK9CHTKxfO-205" source="I0mo_aROr3pK9CHTKxfO-209" target="I0mo_aROr3pK9CHTKxfO-211">
          <mxGeometry relative="1" as="geometry" />
        </mxCell>
        <mxCell id="I0mo_aROr3pK9CHTKxfO-209" value="TRANSMITTING" style="rounded=1;whiteSpace=wrap;html=1;arcSize=24;fillColor=#F2CC8F;strokeColor=#E07A5F;shadow=0;comic=0;labelBackgroundColor=none;fontFamily=Verdana;fontSize=12;fontColor=#393C56;align=center;" vertex="1" parent="I0mo_aROr3pK9CHTKxfO-205">
          <mxGeometry x="157" y="255.12" width="120" height="60" as="geometry" />
        </mxCell>
        <mxCell id="I0mo_aROr3pK9CHTKxfO-210" style="edgeStyle=orthogonalEdgeStyle;rounded=0;orthogonalLoop=1;jettySize=auto;html=1;strokeColor=#E07A5F;fontColor=#393C56;fillColor=#F2CC8F;" edge="1" parent="I0mo_aROr3pK9CHTKxfO-205" source="I0mo_aROr3pK9CHTKxfO-211" target="I0mo_aROr3pK9CHTKxfO-215">
          <mxGeometry relative="1" as="geometry" />
        </mxCell>
        <mxCell id="I0mo_aROr3pK9CHTKxfO-211" value="Transmit data via LoRaWAN" style="shape=process;whiteSpace=wrap;html=1;backgroundOutline=1;strokeColor=#E07A5F;fontColor=#393C56;fillColor=#F2CC8F;" vertex="1" parent="I0mo_aROr3pK9CHTKxfO-205">
          <mxGeometry x="328" y="255.12" width="120" height="60" as="geometry" />
        </mxCell>
        <mxCell id="I0mo_aROr3pK9CHTKxfO-212" style="edgeStyle=orthogonalEdgeStyle;rounded=0;orthogonalLoop=1;jettySize=auto;html=1;entryX=0.5;entryY=1;entryDx=0;entryDy=0;strokeColor=#E07A5F;fontColor=#393C56;fillColor=#F2CC8F;" edge="1" parent="I0mo_aROr3pK9CHTKxfO-205" source="I0mo_aROr3pK9CHTKxfO-215" target="I0mo_aROr3pK9CHTKxfO-220">
          <mxGeometry relative="1" as="geometry" />
        </mxCell>
        <mxCell id="I0mo_aROr3pK9CHTKxfO-213" value="False" style="edgeLabel;html=1;align=center;verticalAlign=middle;resizable=0;points=[];strokeColor=#E07A5F;fontColor=#393C56;fillColor=#F2CC8F;" vertex="1" connectable="0" parent="I0mo_aROr3pK9CHTKxfO-212">
          <mxGeometry x="-0.2946" y="-3" relative="1" as="geometry">
            <mxPoint x="16" y="18" as="offset" />
          </mxGeometry>
        </mxCell>
        <mxCell id="I0mo_aROr3pK9CHTKxfO-214" style="edgeStyle=orthogonalEdgeStyle;rounded=0;orthogonalLoop=1;jettySize=auto;html=1;entryX=0.5;entryY=1;entryDx=0;entryDy=0;strokeColor=#E07A5F;fontColor=#393C56;fillColor=#F2CC8F;" edge="1" parent="I0mo_aROr3pK9CHTKxfO-205" source="I0mo_aROr3pK9CHTKxfO-215" target="I0mo_aROr3pK9CHTKxfO-221">
          <mxGeometry relative="1" as="geometry" />
        </mxCell>
        <mxCell id="I0mo_aROr3pK9CHTKxfO-215" value="Data received&lt;div&gt;by&lt;/div&gt;&lt;div&gt;cloud platform successfully&lt;/div&gt;" style="rhombus;whiteSpace=wrap;html=1;strokeColor=#E07A5F;fontColor=#393C56;fillColor=#F2CC8F;" vertex="1" parent="I0mo_aROr3pK9CHTKxfO-205">
          <mxGeometry x="521" y="221.99" width="126.25" height="126.25" as="geometry" />
        </mxCell>
        <mxCell id="I0mo_aROr3pK9CHTKxfO-216" style="edgeStyle=orthogonalEdgeStyle;rounded=0;orthogonalLoop=1;jettySize=auto;html=1;entryX=0.5;entryY=0;entryDx=0;entryDy=0;strokeColor=#E07A5F;fontColor=#393C56;fillColor=#F2CC8F;" edge="1" parent="I0mo_aROr3pK9CHTKxfO-205" source="I0mo_aROr3pK9CHTKxfO-220" target="I0mo_aROr3pK9CHTKxfO-211">
          <mxGeometry relative="1" as="geometry" />
        </mxCell>
        <mxCell id="I0mo_aROr3pK9CHTKxfO-217" value="True" style="edgeLabel;html=1;align=center;verticalAlign=middle;resizable=0;points=[];strokeColor=#E07A5F;fontColor=#393C56;fillColor=#F2CC8F;" vertex="1" connectable="0" parent="I0mo_aROr3pK9CHTKxfO-216">
          <mxGeometry x="-0.6141" y="-1" relative="1" as="geometry">
            <mxPoint x="42" y="-9" as="offset" />
          </mxGeometry>
        </mxCell>
        <mxCell id="I0mo_aROr3pK9CHTKxfO-218" style="edgeStyle=orthogonalEdgeStyle;rounded=0;orthogonalLoop=1;jettySize=auto;html=1;entryX=0;entryY=0.5;entryDx=0;entryDy=0;strokeColor=#E07A5F;fontColor=#393C56;fillColor=#F2CC8F;" edge="1" parent="I0mo_aROr3pK9CHTKxfO-205" source="I0mo_aROr3pK9CHTKxfO-220" target="I0mo_aROr3pK9CHTKxfO-224">
          <mxGeometry relative="1" as="geometry" />
        </mxCell>
        <mxCell id="I0mo_aROr3pK9CHTKxfO-219" value="False" style="edgeLabel;html=1;align=center;verticalAlign=middle;resizable=0;points=[];strokeColor=#E07A5F;fontColor=#393C56;fillColor=#F2CC8F;" vertex="1" connectable="0" parent="I0mo_aROr3pK9CHTKxfO-218">
          <mxGeometry x="-0.2557" y="-2" relative="1" as="geometry">
            <mxPoint x="-9" y="-13" as="offset" />
          </mxGeometry>
        </mxCell>
        <mxCell id="I0mo_aROr3pK9CHTKxfO-220" value="Attemps to transmit &amp;lt;= 3" style="rhombus;whiteSpace=wrap;html=1;strokeColor=#E07A5F;fontColor=#393C56;fillColor=#F2CC8F;" vertex="1" parent="I0mo_aROr3pK9CHTKxfO-205">
          <mxGeometry x="534.06" y="45" width="100.12" height="100.12" as="geometry" />
        </mxCell>
        <mxCell id="I0mo_aROr3pK9CHTKxfO-221" value="" style="ellipse;html=1;shape=endState;fillColor=#F2CC8F;strokeColor=#E07A5F;rounded=1;shadow=0;comic=0;labelBackgroundColor=none;fontFamily=Verdana;fontSize=12;fontColor=#393C56;align=center;" vertex="1" parent="I0mo_aROr3pK9CHTKxfO-205">
          <mxGeometry x="754" y="189.00000000000006" width="30" height="30" as="geometry" />
        </mxCell>
        <mxCell id="I0mo_aROr3pK9CHTKxfO-222" value="Change state&lt;div&gt;to&lt;/div&gt;&lt;div&gt;CONNECTED&lt;/div&gt;" style="text;html=1;align=center;verticalAlign=middle;whiteSpace=wrap;rounded=0;fontColor=#393C56;" vertex="1" parent="I0mo_aROr3pK9CHTKxfO-205">
          <mxGeometry x="791.25" y="182" width="88" height="50" as="geometry" />
        </mxCell>
        <mxCell id="I0mo_aROr3pK9CHTKxfO-223" style="edgeStyle=orthogonalEdgeStyle;rounded=0;orthogonalLoop=1;jettySize=auto;html=1;entryX=0.5;entryY=0;entryDx=0;entryDy=0;strokeColor=#E07A5F;fontColor=#393C56;fillColor=#F2CC8F;" edge="1" parent="I0mo_aROr3pK9CHTKxfO-205" source="I0mo_aROr3pK9CHTKxfO-224" target="I0mo_aROr3pK9CHTKxfO-221">
          <mxGeometry relative="1" as="geometry" />
        </mxCell>
        <mxCell id="I0mo_aROr3pK9CHTKxfO-224" value="Output Error Message" style="shape=process;whiteSpace=wrap;html=1;backgroundOutline=1;strokeColor=#E07A5F;fontColor=#393C56;fillColor=#F2CC8F;" vertex="1" parent="I0mo_aROr3pK9CHTKxfO-205">
          <mxGeometry x="709" y="65.06" width="120" height="60" as="geometry" />
        </mxCell>
        <mxCell id="I0mo_aROr3pK9CHTKxfO-225" value="SETUP_HR" style="swimlane;whiteSpace=wrap;html=1;rounded=1;shadow=0;comic=0;labelBackgroundColor=none;strokeWidth=1;fontFamily=Verdana;fontSize=12;align=center;fillColor=#F2CC8F;strokeColor=#E07A5F;fontColor=#393C56;" vertex="1" parent="1">
          <mxGeometry x="-508" y="340" width="753" height="250" as="geometry" />
        </mxCell>
        <mxCell id="I0mo_aROr3pK9CHTKxfO-226" value="" style="ellipse;html=1;shape=endState;fillColor=#F2CC8F;strokeColor=#E07A5F;rounded=1;shadow=0;comic=0;labelBackgroundColor=none;fontFamily=Verdana;fontSize=12;fontColor=#393C56;align=center;" vertex="1" parent="I0mo_aROr3pK9CHTKxfO-225">
          <mxGeometry x="653" y="135.99999999999997" width="30" height="30" as="geometry" />
        </mxCell>
        <mxCell id="I0mo_aROr3pK9CHTKxfO-227" style="edgeStyle=orthogonalEdgeStyle;rounded=0;orthogonalLoop=1;jettySize=auto;html=1;entryX=0;entryY=0.5;entryDx=0;entryDy=0;strokeColor=#E07A5F;fontColor=#393C56;fillColor=#F2CC8F;" edge="1" parent="I0mo_aROr3pK9CHTKxfO-225" source="I0mo_aROr3pK9CHTKxfO-228" target="I0mo_aROr3pK9CHTKxfO-245">
          <mxGeometry relative="1" as="geometry" />
        </mxCell>
        <mxCell id="I0mo_aROr3pK9CHTKxfO-228" value="" style="ellipse;html=1;shape=startState;fillColor=#F2CC8F;strokeColor=#E07A5F;rounded=1;shadow=0;comic=0;labelBackgroundColor=none;fontFamily=Verdana;fontSize=12;fontColor=#393C56;align=center;direction=south;" vertex="1" parent="I0mo_aROr3pK9CHTKxfO-225">
          <mxGeometry x="17" y="135.99999999999997" width="30" height="30" as="geometry" />
        </mxCell>
        <mxCell id="I0mo_aROr3pK9CHTKxfO-229" style="edgeStyle=orthogonalEdgeStyle;rounded=0;orthogonalLoop=1;jettySize=auto;html=1;entryX=0.5;entryY=0;entryDx=0;entryDy=0;strokeColor=#E07A5F;fontColor=#393C56;fillColor=#F2CC8F;" edge="1" parent="I0mo_aROr3pK9CHTKxfO-225">
          <mxGeometry relative="1" as="geometry">
            <mxPoint x="205" y="395" as="sourcePoint" />
          </mxGeometry>
        </mxCell>
        <mxCell id="I0mo_aROr3pK9CHTKxfO-230" value="True" style="edgeLabel;html=1;align=center;verticalAlign=middle;resizable=0;points=[];strokeColor=#E07A5F;fontColor=#393C56;fillColor=#F2CC8F;" vertex="1" connectable="0" parent="I0mo_aROr3pK9CHTKxfO-229">
          <mxGeometry x="-0.1667" y="3" relative="1" as="geometry">
            <mxPoint x="-23" y="-15" as="offset" />
          </mxGeometry>
        </mxCell>
        <mxCell id="I0mo_aROr3pK9CHTKxfO-231" style="edgeStyle=orthogonalEdgeStyle;rounded=0;orthogonalLoop=1;jettySize=auto;html=1;strokeColor=#E07A5F;fontColor=#393C56;fillColor=#F2CC8F;" edge="1" parent="I0mo_aROr3pK9CHTKxfO-225">
          <mxGeometry relative="1" as="geometry">
            <mxPoint x="370" y="395" as="sourcePoint" />
          </mxGeometry>
        </mxCell>
        <mxCell id="I0mo_aROr3pK9CHTKxfO-232" value="True" style="edgeLabel;html=1;align=center;verticalAlign=middle;resizable=0;points=[];strokeColor=#E07A5F;fontColor=#393C56;fillColor=#F2CC8F;" vertex="1" connectable="0" parent="I0mo_aROr3pK9CHTKxfO-231">
          <mxGeometry x="-0.6222" y="-1" relative="1" as="geometry">
            <mxPoint x="-19" as="offset" />
          </mxGeometry>
        </mxCell>
        <mxCell id="I0mo_aROr3pK9CHTKxfO-233" style="edgeStyle=orthogonalEdgeStyle;rounded=0;orthogonalLoop=1;jettySize=auto;html=1;exitX=0.5;exitY=1;exitDx=0;exitDy=0;strokeColor=#E07A5F;fontColor=#393C56;fillColor=#F2CC8F;" edge="1" parent="I0mo_aROr3pK9CHTKxfO-225">
          <mxGeometry relative="1" as="geometry">
            <mxPoint x="530" y="395" as="sourcePoint" />
          </mxGeometry>
        </mxCell>
        <mxCell id="I0mo_aROr3pK9CHTKxfO-234" value="True" style="edgeLabel;html=1;align=center;verticalAlign=middle;resizable=0;points=[];strokeColor=#E07A5F;fontColor=#393C56;fillColor=#F2CC8F;" vertex="1" connectable="0" parent="I0mo_aROr3pK9CHTKxfO-233">
          <mxGeometry x="-0.687" y="1" relative="1" as="geometry">
            <mxPoint x="-16" as="offset" />
          </mxGeometry>
        </mxCell>
        <mxCell id="I0mo_aROr3pK9CHTKxfO-235" style="edgeStyle=orthogonalEdgeStyle;rounded=0;orthogonalLoop=1;jettySize=auto;html=1;entryX=0;entryY=0.5;entryDx=0;entryDy=0;strokeColor=#E07A5F;fontColor=#393C56;fillColor=#F2CC8F;" edge="1" parent="I0mo_aROr3pK9CHTKxfO-225">
          <mxGeometry relative="1" as="geometry">
            <mxPoint x="684.9999999999995" y="394.99999999999955" as="sourcePoint" />
          </mxGeometry>
        </mxCell>
        <mxCell id="I0mo_aROr3pK9CHTKxfO-236" style="edgeStyle=orthogonalEdgeStyle;rounded=0;orthogonalLoop=1;jettySize=auto;html=1;entryX=0;entryY=0.5;entryDx=0;entryDy=0;strokeColor=#E07A5F;fontColor=#393C56;fillColor=#F2CC8F;" edge="1" parent="I0mo_aROr3pK9CHTKxfO-225" source="I0mo_aROr3pK9CHTKxfO-237" target="I0mo_aROr3pK9CHTKxfO-240">
          <mxGeometry relative="1" as="geometry" />
        </mxCell>
        <mxCell id="I0mo_aROr3pK9CHTKxfO-237" value="Enter min/max values sequentially" style="shape=process;whiteSpace=wrap;html=1;backgroundOutline=1;strokeColor=#E07A5F;fontColor=#393C56;fillColor=#F2CC8F;" vertex="1" parent="I0mo_aROr3pK9CHTKxfO-225">
          <mxGeometry x="299" y="121" width="120" height="60" as="geometry" />
        </mxCell>
        <mxCell id="I0mo_aROr3pK9CHTKxfO-238" style="edgeStyle=orthogonalEdgeStyle;rounded=0;orthogonalLoop=1;jettySize=auto;html=1;strokeColor=#E07A5F;fontColor=#393C56;fillColor=#F2CC8F;" edge="1" parent="I0mo_aROr3pK9CHTKxfO-225" source="I0mo_aROr3pK9CHTKxfO-240" target="I0mo_aROr3pK9CHTKxfO-226">
          <mxGeometry relative="1" as="geometry" />
        </mxCell>
        <mxCell id="I0mo_aROr3pK9CHTKxfO-239" value="False" style="edgeLabel;html=1;align=center;verticalAlign=middle;resizable=0;points=[];strokeColor=#E07A5F;fontColor=#393C56;fillColor=#F2CC8F;" vertex="1" connectable="0" parent="I0mo_aROr3pK9CHTKxfO-238">
          <mxGeometry x="-0.2407" relative="1" as="geometry">
            <mxPoint x="-3" y="-15" as="offset" />
          </mxGeometry>
        </mxCell>
        <mxCell id="I0mo_aROr3pK9CHTKxfO-240" value="max &amp;lt; min" style="rhombus;whiteSpace=wrap;html=1;strokeColor=#E07A5F;fontColor=#393C56;fillColor=#F2CC8F;" vertex="1" parent="I0mo_aROr3pK9CHTKxfO-225">
          <mxGeometry x="509" y="111" width="80" height="80" as="geometry" />
        </mxCell>
        <mxCell id="I0mo_aROr3pK9CHTKxfO-241" style="edgeStyle=orthogonalEdgeStyle;rounded=0;orthogonalLoop=1;jettySize=auto;html=1;entryX=0.5;entryY=0;entryDx=0;entryDy=0;strokeColor=#E07A5F;fontColor=#393C56;fillColor=#F2CC8F;" edge="1" parent="I0mo_aROr3pK9CHTKxfO-225" source="I0mo_aROr3pK9CHTKxfO-240" target="I0mo_aROr3pK9CHTKxfO-237">
          <mxGeometry relative="1" as="geometry">
            <Array as="points">
              <mxPoint x="549" y="67" />
              <mxPoint x="359" y="67" />
            </Array>
          </mxGeometry>
        </mxCell>
        <mxCell id="I0mo_aROr3pK9CHTKxfO-242" value="True" style="edgeLabel;html=1;align=center;verticalAlign=middle;resizable=0;points=[];strokeColor=#E07A5F;fontColor=#393C56;fillColor=#F2CC8F;" vertex="1" connectable="0" parent="I0mo_aROr3pK9CHTKxfO-241">
          <mxGeometry x="-0.8233" y="-1" relative="1" as="geometry">
            <mxPoint x="-21" y="5" as="offset" />
          </mxGeometry>
        </mxCell>
        <mxCell id="I0mo_aROr3pK9CHTKxfO-243" value="&lt;div&gt;Change state&lt;/div&gt;&lt;div&gt;to&lt;/div&gt;&lt;div&gt;SETUP&lt;/div&gt;" style="text;html=1;align=center;verticalAlign=middle;whiteSpace=wrap;rounded=0;fontColor=#393C56;" vertex="1" parent="I0mo_aROr3pK9CHTKxfO-225">
          <mxGeometry x="638" y="177" width="60" height="53" as="geometry" />
        </mxCell>
        <mxCell id="I0mo_aROr3pK9CHTKxfO-244" style="edgeStyle=orthogonalEdgeStyle;rounded=0;orthogonalLoop=1;jettySize=auto;html=1;entryX=0;entryY=0.5;entryDx=0;entryDy=0;strokeColor=#E07A5F;fontColor=#393C56;fillColor=#F2CC8F;" edge="1" parent="I0mo_aROr3pK9CHTKxfO-225" source="I0mo_aROr3pK9CHTKxfO-245" target="I0mo_aROr3pK9CHTKxfO-237">
          <mxGeometry relative="1" as="geometry" />
        </mxCell>
        <mxCell id="I0mo_aROr3pK9CHTKxfO-245" value="SETUP_HR" style="rounded=1;whiteSpace=wrap;html=1;arcSize=24;fillColor=#F2CC8F;strokeColor=#E07A5F;shadow=0;comic=0;labelBackgroundColor=none;fontFamily=Verdana;fontSize=12;fontColor=#393C56;align=center;" vertex="1" parent="I0mo_aROr3pK9CHTKxfO-225">
          <mxGeometry x="119" y="121" width="120" height="60" as="geometry" />
        </mxCell>
      </root>
    </mxGraphModel>
  </diagram>
</mxfile>
